<?xml version="1.0" encoding="utf-8"?>
<!-- Generator: Adobe Illustrator 19.0.0, SVG Export Plug-In . SVG Version: 6.00 Build 0)  -->
<svg version="1.1" id="Layer_1" xmlns="http://www.w3.org/2000/svg" xmlns:xlink="http://www.w3.org/1999/xlink" x="0px" y="0px"
	 viewBox="-709 289.5 500 343" style="enable-background:new -709 289.5 500 343;" xml:space="preserve">
<style type="text/css">
	.st0{fill:#F7F7F7;}
	.st1{fill:#196B69;}
	.st2{font-family:'Montserrat-SemiBold';}
	.st3{font-size:13px;}
	.st4{fill:#6CDD6C;}
	.st5{fill:#50AA50;}
	.st6{fill:#405B91;}
	.st7{fill:#FFFFFF;}
	.st8{fill:#415B91;}
	.st9{fill:#B6D0FB;}
	.st10{fill:#3F5B91;}
	.st11{fill:#D7E7FF;}
	.st12{display:none;}
</style>
<g id="BACKGROUND">
	<rect x="-707.8" y="291.2" class="st0" width="500" height="341"/>
</g>
<g id="OBJECTS">
	<text transform="matrix(1 0 0 1 -521.4897 599.3533)" class="st1 st2 st3">Will be Back Soon!</text>
	<g>
		<g>
			<g>
				<g>
					<path class="st4" d="M-391.3,544.9c-0.5-1.8-1.8-3.4-3.5-4c-1.8-0.6-4,0.3-4.5,2.1c-1.6-1.3-4.1-0.3-5.4,1.4
						c-2.1,2.7-0.5,7.1-0.1,7.3c0.4,0.3,1.4,0.3,1.4,0.3l15.7-0.1c0,0,2.9-0.2,4.2-0.7c2.7-1.1,4.5-5.7,2.8-8
						c-1.2-1.6-3.5-1.9-5.4-1.3C-388.1,542.4-389.9,543.6-391.3,544.9"/>
				</g>
				<g>
					<path class="st5" d="M-403.7,552.5c-0.4,0-1.1-0.1-1.5-0.4c-0.6-0.5-2.2-5.2,0-8.1c0.9-1.2,2.3-2,3.7-2.2
						c0.7-0.1,1.3,0,1.9,0.3c0.3-0.6,0.9-1.1,1.5-1.5c1-0.5,2.3-0.7,3.4-0.3c1.6,0.5,2.9,1.8,3.6,3.6c1.5-1.2,3.2-2.2,4.8-2.7
						c1.9-0.6,4.5-0.4,5.9,1.5c0.8,1.1,1,2.7,0.5,4.4c-0.6,2-2,3.8-3.5,4.4c-1.4,0.6-4.2,0.8-4.4,0.8l-15.7,0.1
						C-403.6,552.5-403.6,552.5-403.7,552.5z M-401.1,542.9c-0.1,0-0.2,0-0.3,0c-1,0.1-2.2,0.8-3,1.8c-1.8,2.4-0.5,6.3-0.2,6.7
						c0.1,0.1,0.6,0.1,1,0.1l15.7-0.1c0,0,2.8-0.2,4-0.7s2.4-2,2.9-3.7c0.4-1.4,0.3-2.7-0.3-3.5c-1.1-1.5-3.3-1.6-4.8-1.1
						c-1.6,0.5-3.4,1.6-5,3c-0.1,0.1-0.3,0.2-0.5,0.1c-0.2,0-0.3-0.2-0.4-0.3c-0.6-1.8-1.7-3.2-3.2-3.6c-0.8-0.3-1.8-0.2-2.6,0.2
						c-0.7,0.3-1.1,0.9-1.3,1.5c-0.1,0.2-0.2,0.3-0.3,0.3c-0.2,0-0.3,0-0.5-0.1C-400.1,543-400.6,542.9-401.1,542.9z"/>
				</g>
			</g>
			<g>
				<g>
					<g>
						<path class="st5" d="M-407.9,544.3c-0.4,0.9-0.6,1.8-0.5,2.8c0.1,0.5,0.8,0.5,0.8,0c-0.1-0.8,0-1.7,0.4-2.4
							C-407,544.2-407.6,543.8-407.9,544.3L-407.9,544.3z"/>
					</g>
				</g>
			</g>
			<g>
				<g>
					<g>
						<path class="st5" d="M-410.1,544.9c-0.2,0.9-0.3,1.8-0.1,2.6c0.1,0.5,0.9,0.3,0.8-0.2c-0.2-0.8-0.1-1.5,0.1-2.2
							C-409.2,544.6-410,544.4-410.1,544.9L-410.1,544.9z"/>
					</g>
				</g>
			</g>
			<g>
				<g>
					<g>
						<path class="st5" d="M-405.8,543.3c0.5,0,0.5-0.8,0-0.8C-406.3,542.6-406.3,543.3-405.8,543.3L-405.8,543.3z"/>
					</g>
				</g>
			</g>
			<g>
				<g>
					<g>
						<path class="st5" d="M-403.6,547.1c0,0.2,0,0.5,0,0.7c0,0.5,0.8,0.5,0.8,0c0-0.2,0-0.5,0-0.7
							C-402.8,546.6-403.6,546.6-403.6,547.1L-403.6,547.1z"/>
					</g>
				</g>
			</g>
			<g>
				<g>
					<g>
						<path class="st5" d="M-390.4,548.3c0,0.1,0,0.2,0,0.3c0,0.5,0.8,0.5,0.8,0c0-0.1,0-0.2,0-0.3
							C-389.6,547.8-390.4,547.8-390.4,548.3L-390.4,548.3z"/>
					</g>
				</g>
			</g>
			<g>
				<g>
					<g>
						<path class="st5" d="M-391.9,547.4c0.1,0.1,0.1,0.1,0.2,0.2c0.4,0.4,0.9-0.2,0.5-0.6c-0.1-0.1-0.1-0.1-0.2-0.2
							C-391.7,546.5-392.2,547-391.9,547.4L-391.9,547.4z"/>
					</g>
				</g>
			</g>
		</g>
		<g>
			<path class="st6" d="M-612.9,530.2h-26.3c-0.6,0-1-0.5-1-1c0-0.6,0.5-1,1-1h26.3c0.6,0,1,0.5,1,1
				C-611.8,529.8-612.3,530.2-612.9,530.2z"/>
		</g>
		<g>
			<g>
				<path class="st7" d="M-381,438.9h-0.8c0-0.6-0.5-1.1-1.1-1.1s-1.1,0.5-1.1,1.1h-0.8c0-1,0.8-1.9,1.9-1.9
					C-381.9,437-381,437.9-381,438.9z"/>
			</g>
		</g>
		<g>
			<g>
				<path class="st7" d="M-378.4,395.1h-0.8c0-0.6-0.5-1.1-1.1-1.1s-1.1,0.5-1.1,1.1h-0.8c0-1,0.8-1.9,1.9-1.9
					C-379.2,393.2-378.4,394.1-378.4,395.1z"/>
			</g>
		</g>
		<g>
			<g>
				<g>
					<path class="st8" d="M-472,547.3h-35.8l0.6-1.4c2.3-5.6,2.6-10.3,2.2-15.8V529l30.2-0.1v1c0,3.5,1,11.5,2.4,16L-472,547.3z
						 M-504.7,545.2h29.9c-1.2-4.4-1.9-10.6-2.1-14.3l-25.9,0.1C-502.5,535.9-502.8,540.2-504.7,545.2z"/>
				</g>
			</g>
		</g>
		<g>
			<g>
				<g>
					<path class="st8" d="M-518,530.9c-27.2,0-49.2-0.1-50.1-0.5c-2.3-0.8-5.4-4.1-5.4-6.3c-0.1-5-0.3-11.7-0.5-19.5
						c-0.7-23.5-1.8-55.8-0.4-73.6c0.2-3.3,2.9-5.8,6.1-5.8h0.1l156.6,0.2c3.3,0.1,6,2.7,6,6.1c0.1,5.2,0.3,10.5,0.5,15.9
						c0.7,22.6,1.5,46-1,68.1c-0.1,0.9-0.1,1.8-0.2,2.8c-0.2,4.6-0.5,10.4-6.4,11.6C-415.8,530.5-473.8,530.9-518,530.9z
						 M-568.4,426.9c-2.4,0-4.3,1.8-4.5,4.2c-1.3,17.8-0.3,49.9,0.4,73.4c0.2,7.8,0.5,14.6,0.5,19.5c0,1.4,2.4,4.1,4.3,4.8
						c3.3,0.7,150.6,0.2,154.4-0.5c4.7-0.9,4.9-5.6,5.1-10c0-1,0.1-2,0.2-2.9c2.5-22,1.7-45.3,1-67.8c-0.2-5.4-0.3-10.7-0.5-15.9
						c-0.1-2.5-2-4.4-4.4-4.5L-568.4,426.9L-568.4,426.9z"/>
				</g>
			</g>
		</g>
		<g>
			<g>
				<path class="st9" d="M-416.1,430.8l-147.6-0.2c-2.7,0-4.9,1.8-5.1,4.2c-1.7,19.8,0.6,61,0.9,77.6c0,1.6,2.7,4,4.6,4.6
					c2.2,0.7,142.5,0.2,145.9-0.4c6.2-1.1,5.1-7.4,5.6-11.4c2.9-22.8,1.1-47.6,0.5-69.9C-411.2,432.8-413.4,430.9-416.1,430.8z"/>
			</g>
		</g>
		<g>
			<g>
				<g>
					<path class="st8" d="M-459.2,553h-61.4c-2.4,0-3.7-1.9-3.7-3.8s1.3-3.8,3.7-3.8h61.4c2.4,0,3.7,1.9,3.7,3.8
						C-455.4,551-456.7,553-459.2,553z M-520.6,547c-1.6,0-2,1.3-2,2.1c0,0.8,0.4,2.1,2,2.1h61.4c1.6,0,2-1.3,2-2.1
						c0-0.8-0.4-2.1-2-2.1H-520.6z"/>
				</g>
			</g>
		</g>
		<g>
			<g>
				<g>
					<g>
						<g>
							<path class="st8" d="M-563.3,523C-563.7,523-563.7,523-563.3,523"/>
						</g>
					</g>
				</g>
				<g>
					<g>
						<g>
							<g>
								<path class="st8" d="M-563.3,525.1c2.8,0,2.8-4.3,0-4.3C-566.1,520.8-566.1,525.1-563.3,525.1L-563.3,525.1z"/>
							</g>
						</g>
					</g>
				</g>
			</g>
			<g>
				<g>
					<g>
						<g>
							<path class="st8" d="M-554.7,523C-555,523-555,523-554.7,523"/>
						</g>
					</g>
				</g>
				<g>
					<g>
						<g>
							<g>
								<path class="st8" d="M-554.7,525.1c2.8,0,2.8-4.3,0-4.3C-557.4,520.8-557.4,525.1-554.7,525.1L-554.7,525.1z"/>
							</g>
						</g>
					</g>
				</g>
			</g>
			<g>
				<g>
					<g>
						<g>
							<path class="st8" d="M-546,523C-546.4,523-546.4,523-546,523"/>
						</g>
					</g>
				</g>
				<g>
					<g>
						<g>
							<g>
								<path class="st8" d="M-546,525.1c2.8,0,2.8-4.3,0-4.3C-548.8,520.8-548.8,525.1-546,525.1L-546,525.1z"/>
							</g>
						</g>
					</g>
				</g>
			</g>
		</g>
		<g>
			<g>
				<g>
					<g>
						<path class="st8" d="M-489.9,428.6C-490,428.6-490,428.6-489.9,428.6"/>
					</g>
				</g>
			</g>
			<g>
				<g>
					<g>
						<g>
							<path class="st8" d="M-489.9,429.6c1.3,0,1.3-2,0-2S-491.2,429.6-489.9,429.6L-489.9,429.6z"/>
						</g>
					</g>
				</g>
			</g>
		</g>
		<g>
			<g>
				<polygon class="st9" points="-316.7,548.9 -337.8,548.9 -329.7,522.2 -324.8,522.2 				"/>
			</g>
			<g>
				<rect x="-339.6" y="548.9" class="st9" width="24.7" height="3.1"/>
			</g>
			<g>
				<polygon class="st8" points="-335.8,542.2 -337.8,548.9 -316.7,548.9 -318.7,542.2 				"/>
			</g>
			<g>
				<polygon class="st8" points="-333.8,535.5 -320.8,535.5 -322.8,528.8 -331.7,528.8 				"/>
			</g>
		</g>
		<g id="XMLID_11_">
			<g id="XMLID_493_">
				<path class="st9" d="M-308,551.8h4.7v-18.2h24.1v18.2h4.7v-18.2h5v-14.5h-4v-1.3h-6.8v1.3h-21.4v-1.3h-6.8v1.3h-4.4v14.5h4.9
					L-308,551.8L-308,551.8z M-271.1,520.6L-271.1,520.6l-2.9,11.5h-5.2l2.9-11.5H-271.1z M-284.6,532.1h-5.2l2.9-11.5h5.2
					L-284.6,532.1z M-295.1,532.1h-5.2l2.9-11.5h5.2L-295.1,532.1z M-308,520.6h5.2l-2.9,11.5h-5.2L-308,520.6z"/>
			</g>
		</g>
		<g>
			<g>
				<g>
					<path class="st9" d="M-539,374.1l1.4-1.4c0.3-0.3,0.3-0.7,0-1l-1.2-1.2c-0.3-0.3-0.4-0.8-0.2-1.2l1-2.4
						c0.1-0.4,0.5-0.7,0.9-0.7h1.7c0.4,0,0.7-0.3,0.7-0.7v-2c0-0.4-0.3-0.7-0.7-0.7h-1.6c-0.4,0-0.8-0.3-0.9-0.7l-1-2.4
						c-0.2-0.4-0.1-0.9,0.2-1.2l1.2-1.2c0.3-0.3,0.3-0.7,0-1l-1.4-1.4c-0.3-0.3-0.7-0.3-1,0l-1.2,1.2c-0.3,0.3-0.8,0.4-1.2,0.2
						l-2.4-1c-0.4-0.1-0.7-0.5-0.7-0.9v-1.7c0-0.4-0.3-0.7-0.7-0.7h-2c-0.4,0-0.7,0.3-0.7,0.7v1.7c0,0.4-0.3,0.8-0.7,0.9l-2.4,1
						c-0.4,0.2-0.9,0.1-1.2-0.2l-1.2-1.2c-0.3-0.3-0.7-0.3-1,0l-1.4,1.4c-0.3,0.3-0.3,0.7,0,1l1.2,1.2c0.3,0.3,0.4,0.8,0.2,1.2
						l-1,2.4c-0.1,0.4-0.5,0.7-0.9,0.7h-1.7c-0.4,0-0.7,0.3-0.7,0.7v2c0,0.4,0.3,0.7,0.7,0.7h1.7c0.4,0,0.8,0.3,0.9,0.7l1,2.4
						c0.2,0.4,0.1,0.9-0.2,1.2l-1.2,1.2c-0.3,0.3-0.3,0.7,0,1l1.4,1.4c0.3,0.3,0.7,0.3,1,0l1.2-1.2c0.3-0.3,0.8-0.4,1.2-0.2l2.4,1
						c0.4,0.1,0.7,0.5,0.7,0.9v1.7c0,0.4,0.3,0.7,0.7,0.7h2c0.4,0,0.7-0.3,0.7-0.7v-1.7c0-0.4,0.3-0.8,0.7-0.9l2.4-1
						c0.4-0.2,0.9-0.1,1.2,0.2l1.2,1.2C-539.7,374.3-539.2,374.3-539,374.1z M-547.2,370.2c-3.2,0-5.8-2.6-5.8-5.8s2.6-5.8,5.8-5.8
						s5.8,2.6,5.8,5.8C-541.4,367.6-544,370.2-547.2,370.2z"/>
				</g>
			</g>
			<g>
				<g>
					<path class="st9" d="M-525.5,379.6l-0.4-1.2c-0.1-0.2-0.3-0.4-0.6-0.3l-1,0.3c-0.2,0.1-0.5,0-0.7-0.3l-1-1.3
						c-0.2-0.2-0.2-0.5-0.1-0.7l0.5-0.9c0.1-0.2,0-0.5-0.2-0.6l-1-0.6c-0.2-0.1-0.5,0-0.6,0.2l-0.5,0.9c-0.1,0.2-0.4,0.4-0.7,0.3
						l-1.6-0.2c-0.2,0-0.5-0.2-0.6-0.4l-0.3-1c-0.1-0.2-0.3-0.4-0.6-0.3l-1.2,0.4c-0.2,0.1-0.4,0.3-0.3,0.6l0.3,1
						c0.1,0.2,0,0.5-0.3,0.7l-1.3,1c-0.2,0.2-0.5,0.2-0.7,0.1l-0.9-0.5c-0.2-0.1-0.5,0-0.6,0.2l-0.6,1.1c-0.1,0.2,0,0.5,0.2,0.6
						l0.9,0.5c0.2,0.1,0.4,0.4,0.3,0.7l-0.2,1.6c0,0.2-0.2,0.5-0.4,0.6l-1,0.3c-0.2,0.1-0.4,0.3-0.3,0.6l0.4,1.2
						c0.1,0.2,0.3,0.4,0.6,0.3l1-0.3c0.2-0.1,0.5,0,0.7,0.2l1,1.3c0.2,0.2,0.2,0.5,0.1,0.7l-0.5,0.9c-0.1,0.2,0,0.5,0.2,0.6l1.1,0.6
						c0.2,0.1,0.5,0,0.6-0.2l0.5-0.9c0.1-0.2,0.4-0.4,0.7-0.3l1.6,0.2c0.3,0,0.5,0.2,0.6,0.4l0.3,1c0.1,0.2,0.3,0.4,0.6,0.3l1.2-0.4
						c0.2-0.1,0.4-0.3,0.3-0.6l-0.3-1c-0.1-0.2,0-0.5,0.2-0.7l1.3-1c0.2-0.2,0.5-0.2,0.7-0.1l0.9,0.5c0.2,0.1,0.5,0,0.6-0.2l0.6-1.1
						c0.1-0.2,0-0.5-0.2-0.6l-0.9-0.5c-0.2-0.1-0.4-0.4-0.3-0.7l0.2-1.6c0-0.2,0.2-0.5,0.4-0.6l1-0.3
						C-525.6,380-525.4,379.8-525.5,379.6z M-530,382.9c-0.9,1.8-3.1,2.4-4.9,1.5c-1.8-0.9-2.4-3.1-1.5-4.9c0.9-1.8,3.1-2.4,4.9-1.5
						C-529.7,379-529.1,381.2-530,382.9z"/>
				</g>
			</g>
		</g>
		<g>
			<path class="st6" d="M-466.6,402.3h-32.6c-0.6,0-1-0.5-1-1c0-0.6,0.5-1,1-1h32.6c0.6,0,1,0.5,1,1
				C-465.6,401.9-466,402.3-466.6,402.3z"/>
		</g>
		<g>
			<path class="st6" d="M-533,417.1h-52.7c-0.6,0-1-0.5-1-1c0-0.6,0.5-1,1-1h52.7c0.6,0,1,0.5,1,1
				C-531.9,416.7-532.4,417.1-533,417.1z"/>
		</g>
		<g>
			<path class="st6" d="M-280.5,445.2h-52.7c-0.6,0-1-0.5-1-1c0-0.6,0.5-1,1-1h52.7c0.6,0,1,0.5,1,1S-279.9,445.2-280.5,445.2z"/>
		</g>
		<g>
			<path class="st6" d="M-259.8,554h-398.4c-0.6,0-1-0.5-1-1c0-0.6,0.5-1,1-1h398.4c0.6,0,1,0.5,1,1
				C-258.8,553.5-259.2,554-259.8,554z"/>
		</g>
		<g>
			<g>
				<g>
					<path class="st9" d="M-405.9,389.3c-2.2,0-4.3,0.9-5.9,2.4c-2.7,2.7-3.2,6.9-1.3,10.1l0.1,0.2l-8.5,8.5c0,0-0.4,0.4-0.4,1
						c0,0.4,0.2,0.9,0.6,1.3c0.5,0.5,0.9,0.7,1.4,0.7c0.6,0,1-0.3,1-0.3l8.4-8.5l0.2,0.1c1.3,0.8,2.7,1.1,4.2,1.1
						c2.2,0,4.3-0.9,5.9-2.4c3.3-3.3,3.3-8.6,0-11.8C-401.6,390.2-403.7,389.3-405.9,389.3z M-405.9,403.5c-3.2,0-5.9-2.6-5.9-5.9
						c0-3.2,2.6-5.9,5.9-5.9l0,0c3.2,0,5.9,2.6,5.9,5.9C-400.1,400.9-402.7,403.5-405.9,403.5z"/>
				</g>
			</g>
			<g>
				<g>
					<path class="st9" d="M-409,398.9h6.1v-1.6h-6.1V398.9z"/>
				</g>
			</g>
		</g>
		<g>
			<g>
				<path class="st6" d="M-561.3,552.1c-0.6,0-1-0.5-1-1v-79.9c0-0.6,0.5-1,1-1c0.6,0,1,0.5,1,1V551
					C-560.2,551.6-560.7,552.1-561.3,552.1z"/>
			</g>
			<g>
				<path class="st6" d="M-542.7,552.1c-0.6,0-1-0.5-1-1v-79.9c0-0.6,0.5-1,1-1c0.6,0,1,0.5,1,1V551
					C-541.7,551.6-542.1,552.1-542.7,552.1z"/>
			</g>
			<g>
				<path class="st6" d="M-542.7,477.7h-18.6c-0.6,0-1-0.5-1-1s0.5-1,1-1h18.6c0.6,0,1,0.5,1,1S-542.1,477.7-542.7,477.7z"/>
			</g>
			<g>
				<path class="st6" d="M-542.7,486.8h-18.6c-0.6,0-1-0.5-1-1c0-0.6,0.5-1,1-1h18.6c0.6,0,1,0.5,1,1S-542.1,486.8-542.7,486.8z"/>
			</g>
			<g>
				<path class="st6" d="M-542.7,495.9h-18.6c-0.6,0-1-0.5-1-1c0-0.6,0.5-1,1-1h18.6c0.6,0,1,0.5,1,1S-542.1,495.9-542.7,495.9z"/>
			</g>
			<g>
				<path class="st6" d="M-542.7,505h-18.6c-0.6,0-1-0.5-1-1c0-0.6,0.5-1,1-1h18.6c0.6,0,1,0.5,1,1
					C-541.7,504.6-542.1,505-542.7,505z"/>
			</g>
			<g>
				<path class="st6" d="M-542.7,514.2h-18.6c-0.6,0-1-0.5-1-1c0-0.6,0.5-1,1-1h18.6c0.6,0,1,0.5,1,1S-542.1,514.2-542.7,514.2z"/>
			</g>
			<g>
				<path class="st6" d="M-542.7,523.3h-18.6c-0.6,0-1-0.5-1-1c0-0.6,0.5-1,1-1h18.6c0.6,0,1,0.5,1,1S-542.1,523.3-542.7,523.3z"/>
			</g>
			<g>
				<path class="st6" d="M-542.7,532.4h-18.6c-0.6,0-1-0.5-1-1c0-0.6,0.5-1,1-1h18.6c0.6,0,1,0.5,1,1S-542.1,532.4-542.7,532.4z"/>
			</g>
			<g>
				<path class="st6" d="M-542.7,541.5h-18.6c-0.6,0-1-0.5-1-1c0-0.6,0.5-1,1-1h18.6c0.6,0,1,0.5,1,1
					C-541.7,541.1-542.1,541.5-542.7,541.5z"/>
			</g>
		</g>
		<g>
			<g>
				<path class="st6" d="M-586.5,475c-0.6,0-1-0.5-1-1v-4c0-0.6,0.5-1,1-1c0.6,0,1,0.5,1,1v4C-585.5,474.6-586,475-586.5,475z"/>
			</g>
			<g>
				<path class="st6" d="M-584.5,473h-4c-0.6,0-1-0.5-1-1s0.5-1,1-1h4c0.6,0,1,0.5,1,1S-583.9,473-584.5,473z"/>
			</g>
		</g>
		<g>
			<g>
				<path class="st6" d="M-493.3,330.6c-0.6,0-1-0.5-1-1v-4c0-0.6,0.5-1,1-1c0.6,0,1,0.5,1,1v4
					C-492.2,330.1-492.7,330.6-493.3,330.6z"/>
			</g>
			<g>
				<path class="st6" d="M-491.2,328.6h-4c-0.6,0-1-0.5-1-1s0.5-1,1-1h4c0.6,0,1,0.5,1,1S-490.7,328.6-491.2,328.6z"/>
			</g>
		</g>
		<g>
			<g>
				<path class="st6" d="M-460.6,539.7c-0.1,0-0.2,0-0.3,0l-3.9-1.1c-0.6-0.2-0.9-0.7-0.7-1.3c0.2-0.6,0.7-0.9,1.3-0.7l3.9,1.1
					c0.6,0.2,0.9,0.7,0.7,1.3C-459.7,539.4-460.1,539.7-460.6,539.7z"/>
			</g>
			<g>
				<path class="st6" d="M-463.1,541c-0.1,0-0.2,0-0.3,0c-0.6-0.2-0.9-0.7-0.7-1.3l1.1-3.9c0.2-0.6,0.7-0.9,1.3-0.7
					c0.6,0.2,0.9,0.7,0.7,1.3l-1.1,3.9C-462.2,540.8-462.6,541-463.1,541z"/>
			</g>
		</g>
		<g>
			<g>
				<path class="st6" d="M-481,417.7c-0.1,0-0.2,0-0.3,0l-3.9-1.1c-0.6-0.2-0.9-0.7-0.7-1.3s0.7-0.9,1.3-0.7l3.9,1.1
					c0.6,0.2,0.9,0.7,0.7,1.3C-480.1,417.4-480.5,417.7-481,417.7z"/>
			</g>
			<g>
				<path class="st6" d="M-483.5,419.1c-0.1,0-0.2,0-0.3,0c-0.6-0.2-0.9-0.7-0.7-1.3l1.1-3.9c0.2-0.6,0.7-0.9,1.3-0.7
					c0.6,0.2,0.9,0.7,0.7,1.3l-1.1,3.9C-482.6,418.8-483,419.1-483.5,419.1z"/>
			</g>
		</g>
		<g>
			<g>
				<g>
					<circle class="st9" cx="-483.7" cy="379.5" r="14.4"/>
				</g>
			</g>
			<g>
				<g>
					<g>
						<circle class="st7" cx="-483.7" cy="379.5" r="10.8"/>
					</g>
				</g>
				<g>
					<g>
						<g>
							<path class="st6" d="M-483.7,390.7c-6.2,0-11.2-5-11.2-11.2s5-11.2,11.2-11.2c6.2,0,11.2,5,11.2,11.2
								S-477.5,390.7-483.7,390.7z M-483.7,369.1c-5.7,0-10.4,4.7-10.4,10.4s4.7,10.4,10.4,10.4c5.7,0,10.4-4.7,10.4-10.4
								S-478,369.1-483.7,369.1z"/>
						</g>
					</g>
				</g>
			</g>
			<g>
				<g>
					<g>
						<path class="st6" d="M-483.7,379.9c-0.2,0-0.4-0.2-0.4-0.4V374c0-0.2,0.2-0.4,0.4-0.4c0.2,0,0.4,0.2,0.4,0.4v5.5
							C-483.3,379.7-483.5,379.9-483.7,379.9z"/>
					</g>
				</g>
				<g>
					<g>
						<path class="st6" d="M-477.3,379.9h-6.4c-0.2,0-0.4-0.2-0.4-0.4s0.2-0.4,0.4-0.4h6.4c0.2,0,0.4,0.2,0.4,0.4
							C-476.8,379.7-477,379.9-477.3,379.9z"/>
					</g>
				</g>
			</g>
			<g>
				<g>
					<g>
						<circle class="st6" cx="-483.7" cy="369.9" r="0.4"/>
					</g>
				</g>
				<g>
					<g>
						<circle class="st6" cx="-476.9" cy="372.7" r="0.4"/>
					</g>
				</g>
				<g>
					<g>
						<circle class="st6" cx="-474.1" cy="379.5" r="0.4"/>
					</g>
				</g>
				<g>
					<g>
						<circle class="st6" cx="-476.9" cy="386.2" r="0.4"/>
					</g>
				</g>
				<g>
					<g>
						<circle class="st6" cx="-483.7" cy="389" r="0.4"/>
					</g>
				</g>
				<g>
					<g>
						<circle class="st6" cx="-490.5" cy="386.2" r="0.4"/>
					</g>
				</g>
				<g>
					<g>
						<circle class="st6" cx="-493.3" cy="379.5" r="0.4"/>
					</g>
				</g>
				<g>
					<g>
						<circle class="st6" cx="-490.5" cy="372.7" r="0.4"/>
					</g>
				</g>
			</g>
			<g>
				<g>
					<g>
						<path class="st6" d="M-462.6,374h-6c-0.2,0-0.4-0.2-0.4-0.4s0.2-0.4,0.4-0.4h6c0.2,0,0.4,0.2,0.4,0.4S-462.4,374-462.6,374z"
							/>
					</g>
				</g>
				<g>
					<g>
						<path class="st6" d="M-462.6,385.8h-6c-0.2,0-0.4-0.2-0.4-0.4c0-0.2,0.2-0.4,0.4-0.4h6c0.2,0,0.4,0.2,0.4,0.4
							C-462.2,385.6-462.4,385.8-462.6,385.8z"/>
					</g>
				</g>
				<g>
					<g>
						<path class="st6" d="M-455.1,379.9h-11.3c-0.2,0-0.4-0.2-0.4-0.4s0.2-0.4,0.4-0.4h11.3c0.2,0,0.4,0.2,0.4,0.4
							S-454.9,379.9-455.1,379.9z"/>
					</g>
				</g>
			</g>
		</g>
		<g>
			<g>
				<rect x="-442.1" y="535.5" class="st7" width="6.7" height="6.7"/>
				<path class="st8" d="M-434.9,542.7h-7.7V535h7.7V542.7z M-441.5,541.7h5.6V536h-5.6V541.7z"/>
			</g>
			<g>
				<g>
					<g>
						<path class="st6" d="M-426.9,537h-6c-0.2,0-0.4-0.2-0.4-0.4c0-0.2,0.2-0.4,0.4-0.4h6c0.2,0,0.4,0.2,0.4,0.4
							C-426.5,536.8-426.7,537-426.9,537z"/>
					</g>
				</g>
				<g>
					<g>
						<path class="st6" d="M-424.6,541.6h-8.2c-0.3,0-0.6-0.2-0.6-0.4s0.3-0.4,0.6-0.4h8.2c0.3,0,0.6,0.2,0.6,0.4
							C-424.1,541.4-424.3,541.6-424.6,541.6z"/>
					</g>
				</g>
				<g>
					<g>
						<path class="st6" d="M-421.7,539.1H-433c-0.2,0-0.4-0.2-0.4-0.4s0.2-0.4,0.4-0.4h11.3c0.2,0,0.4,0.2,0.4,0.4
							C-421.3,539-421.4,539.1-421.7,539.1z"/>
					</g>
				</g>
			</g>
		</g>
		<g>
			<g>
				<rect x="-588.8" y="437.5" class="st7" width="6.7" height="6.7"/>
				<path class="st8" d="M-581.6,444.7h-7.7V437h7.7V444.7z M-588.3,443.6h5.6V438h-5.6V443.6z"/>
			</g>
			<g>
				<g>
					<g>
						<path class="st6" d="M-597.2,438.9h6c0.2,0,0.4-0.2,0.4-0.4s-0.2-0.4-0.4-0.4h-6c-0.2,0-0.4,0.2-0.4,0.4
							C-597.7,438.7-597.5,438.9-597.2,438.9z"/>
					</g>
				</g>
				<g>
					<g>
						<path class="st6" d="M-599.5,443.5h8.2c0.3,0,0.6-0.2,0.6-0.4s-0.3-0.4-0.6-0.4h-8.2c-0.3,0-0.6,0.2-0.6,0.4
							S-599.8,443.5-599.5,443.5z"/>
					</g>
				</g>
				<g>
					<g>
						<path class="st6" d="M-602.5,441.1h11.3c0.2,0,0.4-0.2,0.4-0.4s-0.2-0.4-0.4-0.4h-11.3c-0.2,0-0.4,0.2-0.4,0.4
							C-602.9,440.9-602.7,441.1-602.5,441.1z"/>
					</g>
				</g>
			</g>
		</g>
		<g>
			<g>
				<rect x="-385" y="462.6" class="st10" width="2.1" height="89.2"/>
			</g>
			<g>
				<path class="st9" d="M-383.7,473.4h-0.5c-3.4,0-6.2-2.8-6.2-6.2V459c0-3.4,2.8-6.2,6.2-6.2h0.5c3.4,0,6.2,2.8,6.2,6.2v8.2
					C-377.6,470.6-380.3,473.4-383.7,473.4z"/>
			</g>
			<g>
				<g>
					<path class="st10" d="M-375.6,467.4c0.7,0.1,1.5,0.2,2.2,0.4c0.5,0.1,0.7-0.7,0.2-0.7c-0.7-0.1-1.5-0.2-2.2-0.4
						C-375.9,466.6-376.1,467.3-375.6,467.4L-375.6,467.4z"/>
				</g>
			</g>
			<g>
				<g>
					<path class="st10" d="M-375.7,462.6c0.6-0.1,1.1-0.1,1.7-0.1c0.5,0,0.5-0.7,0-0.8c-0.6-0.1-1.3,0-1.9,0.1
						C-376.4,462-376.2,462.7-375.7,462.6L-375.7,462.6z"/>
				</g>
			</g>
			<g>
				<g>
					<path class="st10" d="M-375.9,458.3c0.6-0.2,1.1-0.4,1.7-0.7c0.5-0.2,0.3-0.9-0.2-0.8c-0.6,0.2-1.1,0.4-1.7,0.7
						C-376.6,457.7-376.4,458.5-375.9,458.3L-375.9,458.3z"/>
				</g>
			</g>
			<g>
				<g>
					<path class="st10" d="M-395,468.1c0.6-0.1,1.1-0.2,1.7-0.4c0.5-0.2,0.3-0.9-0.2-0.8c-0.5,0.2-1.1,0.3-1.7,0.4
						C-395.7,467.4-395.5,468.2-395,468.1L-395,468.1z"/>
				</g>
			</g>
			<g>
				<g>
					<path class="st10" d="M-396,462.6c0.7,0,1.4,0.1,2.1,0.3c0.5,0.1,0.7-0.6,0.2-0.8c-0.8-0.2-1.5-0.3-2.3-0.4
						C-396.5,461.8-396.5,462.6-396,462.6L-396,462.6z"/>
				</g>
			</g>
			<g>
				<g>
					<path class="st10" d="M-395.3,456.2c0.6,0.2,1.1,0.4,1.7,0.5c0.5,0.2,0.7-0.6,0.2-0.8c-0.6-0.2-1.1-0.4-1.7-0.5
						C-395.6,455.3-395.8,456-395.3,456.2L-395.3,456.2z"/>
				</g>
			</g>
			<g>
				<polygon class="st6" points="-388.8,553 -387.4,541 -380.7,541 -379.1,552.8 				"/>
			</g>
		</g>
		<g>
			<g>
				<g>
					<g>
						<path class="st4" d="M-579.1,495.9c-0.3-1.9-1.6-6.8-4.6-5.2c-4.8,2.5,1,12-4.8,13.7c-0.3-3.8-1.1-6.4-2.8-6.2
							c-3.5,0.3-2.6,8.5-2.7,10.4c-0.1,1.8-0.1,3.7-0.2,5.6c-4.2,0.7-3.3-10.1-5.9-11.6c-3.9-2.3-4.8,2.9-4.7,5.3
							c0.2,4.1,1.3,9,5.1,11.1c1.3,0.7,3.5,1.5,5.2,1.4c0,3.3,0.1,6.5,0.7,9.6h0.1l0,0l2.3,0.1l0,0c0,1,1.6,1,1.6,0
							c0-2,1.2-11.6,1.4-19.8c1.9,0.3,4.2-0.6,5.5-1.6C-578.9,505.8-578.4,500.4-579.1,495.9z"/>
					</g>
					<g>
						<path class="st5" d="M-590.6,531.3c-0.2,0-0.5-0.1-0.7-0.2c-0.2-0.2-0.4-0.4-0.5-0.7l-1.7-0.1h-0.6l-0.1-0.4
							c-0.5-2.6-0.7-5.6-0.7-9.2c-1.9,0-4-0.9-5-1.5c-4.1-2.3-5.2-7.5-5.3-11.5c-0.1-1.6,0.3-4.9,2.1-6c0.9-0.5,2-0.4,3.3,0.3
							c1.2,0.7,1.7,2.9,2.2,5.5c0.7,3.5,1.4,6,3,6v-0.9c0.1-1.5,0.1-2.9,0.2-4.4c0-0.3,0-0.7,0-1.2c-0.1-3.2-0.3-9.3,3.1-9.6
							c0.5-0.1,1,0.1,1.4,0.5c0.9,0.8,1.6,2.6,1.8,5.6c2.1-1,2-3.4,1.9-6.3c-0.1-2.9-0.3-5.9,2.3-7.2c0.8-0.4,1.6-0.5,2.3-0.1
							c2.1,1.1,2.8,5.2,2.9,5.7l0,0c0.6,3.5,0.8,9.8-3.9,13.2c-1.3,1-3.5,1.8-5.4,1.7c-0.1,5.4-0.7,11.2-1,15.2
							c-0.2,2-0.3,3.5-0.3,4.2c0,0.5-0.2,0.8-0.6,1C-590.1,531.2-590.3,531.3-590.6,531.3z M-593.4,529.5l2.5,0.1v0.4
							c0,0.2,0.1,0.3,0.1,0.3c0.1,0.1,0.3,0.1,0.4,0c0.1-0.1,0.2-0.1,0.2-0.3c0-0.7,0.1-2.2,0.3-4.2c0.4-4,0.9-10.2,1-15.6v-0.5
							l0.5,0.1c1.7,0.3,4-0.6,5.2-1.5c4.3-3.2,4.1-9.1,3.5-12.3l0,0c-0.2-1.4-1-4.3-2.4-5c-0.5-0.2-1-0.2-1.5,0.1
							c-2,1.1-1.9,3.6-1.8,6.4c0.1,3,0.3,6.4-3.1,7.4l-0.5,0.2v-0.5c-0.3-3.8-1-5.1-1.6-5.6c-0.2-0.2-0.5-0.3-0.8-0.3
							c-2.6,0.2-2.4,5.9-2.3,8.7c0,0.6,0,1,0,1.3c0,1.4-0.1,2.9-0.2,4.4l-0.1,1.6l-0.3,0.1c-2.8,0.5-3.6-3.3-4.4-6.7
							c-0.5-2.2-0.9-4.4-1.8-4.9c-1-0.6-1.8-0.7-2.4-0.3c-1.3,0.8-1.7,3.6-1.6,5.2c0.2,3.7,1.2,8.7,4.9,10.8c1.3,0.7,3.4,1.4,5,1.3
							h0.5v0.5C-594,524-593.8,526.9-593.4,529.5z"/>
					</g>
				</g>
				<g>
					<g>
						<g>
							<path class="st8" d="M-583.7,552h-16.9c-0.9,0-1.6-0.6-1.8-1.5l-3.8-19.7l1.6-0.3l3.8,19.7c0,0.2,0.2,0.2,0.2,0.2h16.9
								c0,0,0.2,0,0.2-0.2l3.8-19.7l1.6,0.3l-3.8,19.7C-582.1,551.4-582.8,552-583.7,552z"/>
						</g>
					</g>
				</g>
				<g>
					<g>
						<g>
							<path class="st9" d="M-606,524.5h28c0.5,0,0.9,0.5,0.9,1.2v4.3c0,0.6-0.4,1.2-0.9,1.2h-28c-0.5,0-0.9-0.5-0.9-1.2v-4.3
								C-606.9,525-606.5,524.5-606,524.5z"/>
						</g>
						<g>
							<path class="st6" d="M-578,531.5h-28c-0.7,0-1.3-0.7-1.3-1.6v-4.3c0-0.9,0.6-1.6,1.3-1.6h28c0.7,0,1.3,0.7,1.3,1.6v4.3
								C-576.7,530.8-577.3,531.5-578,531.5z M-606,524.9c-0.2,0-0.4,0.3-0.4,0.7v4.3c0,0.4,0.2,0.7,0.4,0.7h28
								c0.2,0,0.4-0.3,0.4-0.7v-4.3c0-0.4-0.2-0.7-0.4-0.7H-606z"/>
						</g>
					</g>
					<g>
						<g>
							<path class="st9" d="M-578,531.5h-28c-0.7,0-1.2-0.7-1.2-1.5v-4.3c0-0.9,0.6-1.5,1.2-1.5h28c0.7,0,1.2,0.7,1.2,1.5v4.3
								C-576.8,530.8-577.3,531.5-578,531.5z M-606,524.8c-0.2,0-0.5,0.3-0.5,0.8v4.3c0,0.5,0.3,0.8,0.5,0.8h28
								c0.2,0,0.5-0.3,0.5-0.8v-4.3c0-0.5-0.3-0.8-0.5-0.8H-606z"/>
						</g>
						<g>
							<path class="st6" d="M-578,531.9h-28c-0.9,0-1.7-0.9-1.7-2v-4.3c0-1.1,0.8-2,1.7-2h28c0.9,0,1.7,0.9,1.7,2v4.3
								C-576.3,531-577.1,531.9-578,531.9z M-606,525.3c0,0-0.1,0.2-0.1,0.4v4.3c0,0.2,0.1,0.4,0.1,0.4h28c0,0,0.1-0.1,0.1-0.4v-4.3
								c0-0.2-0.1-0.4-0.1-0.4H-606z"/>
						</g>
					</g>
				</g>
			</g>
			<g>
				<g>
					<path class="st5" d="M-603,507.7c0.5,0.1,0.9,0.1,1.4,0.2s0.5-0.7,0-0.8c-0.5-0.1-0.9-0.1-1.4-0.2
						C-603.5,506.9-603.5,507.7-603,507.7L-603,507.7z"/>
				</g>
			</g>
			<g>
				<g>
					<path class="st5" d="M-601,501.6c0,0.2,0,0.5,0,0.7c0,0.5,0.8,0.5,0.8,0c0-0.2,0-0.5,0-0.7C-600.2,501.1-601,501.1-601,501.6
						L-601,501.6z"/>
				</g>
			</g>
			<g>
				<g>
					<path class="st5" d="M-598.3,508.8c0.3-0.2,0.7-0.4,1-0.6c0.4-0.2,0-0.9-0.4-0.7c-0.3,0.2-0.7,0.4-1,0.6
						C-599.1,508.3-598.7,509-598.3,508.8L-598.3,508.8z"/>
				</g>
			</g>
			<g>
				<g>
					<path class="st5" d="M-602.3,517.7c0.4-0.3,0.8-0.6,1.2-0.9c0.4-0.3,0-1-0.4-0.7c-0.4,0.3-0.8,0.6-1.2,0.9
						C-603.1,517.3-602.7,518-602.3,517.7L-602.3,517.7z"/>
				</g>
			</g>
			<g>
				<g>
					<path class="st5" d="M-605.2,511c0.3,0.1,0.6,0.2,0.9,0.3c0.5,0.2,0.7-0.6,0.2-0.8c-0.3-0.1-0.6-0.2-0.9-0.3
						C-605.4,510.1-605.6,510.8-605.2,511L-605.2,511z"/>
				</g>
			</g>
			<g>
				<g>
					<path class="st5" d="M-599.5,514.6c0.2,0,0.3,0.1,0.4,0.2c0.3,0.4,0.9-0.2,0.6-0.5c-0.2-0.3-0.6-0.4-1-0.5
						C-600,513.8-600,514.6-599.5,514.6L-599.5,514.6z"/>
				</g>
			</g>
			<g>
				<g>
					<path class="st5" d="M-597.8,518.3c-0.1,0.5,0,1,0.2,1.5c0.2,0.5,0.9,0.1,0.7-0.4c-0.1-0.3-0.2-0.6-0.1-0.9
						C-597,518-597.7,517.8-597.8,518.3L-597.8,518.3z"/>
				</g>
			</g>
			<g>
				<g>
					<path class="st5" d="M-593.8,518.4c0.2,0.1,0.5,0.1,0.7,0.2c0.5,0.1,0.7-0.6,0.2-0.8c-0.2-0.1-0.5-0.1-0.7-0.2
						C-594,517.6-594.2,518.3-593.8,518.4L-593.8,518.4z"/>
				</g>
			</g>
			<g>
				<g>
					<path class="st5" d="M-591.3,510.8c0,0.4,0.1,0.8,0.5,1.1c0.4,0.3,0.9-0.2,0.6-0.5c-0.2-0.2-0.3-0.3-0.2-0.6
						C-590.4,510.3-591.2,510.3-591.3,510.8L-591.3,510.8z"/>
				</g>
			</g>
			<g>
				<g>
					<path class="st5" d="M-592.3,505.2c-0.2,0.3-0.3,0.6-0.2,1c0.1,0.5,0.8,0.3,0.8-0.2c0-0.2,0-0.3,0.1-0.4
						C-591.3,505.2-592,504.8-592.3,505.2L-592.3,505.2z"/>
				</g>
			</g>
			<g>
				<g>
					<path class="st5" d="M-588,507.5c0,0.2,0,0.5,0,0.7c0,0.5,0.8,0.5,0.8,0c0-0.2,0-0.5,0-0.7C-587.2,507-588,507-588,507.5
						L-588,507.5z"/>
				</g>
			</g>
			<g>
				<g>
					<path class="st5" d="M-595.2,506.3c0.2,0.1,0.3,0.2,0.5,0.3c0.4,0.3,0.8-0.4,0.4-0.7c-0.2-0.1-0.3-0.2-0.5-0.3
						C-595.3,505.3-595.6,506-595.2,506.3L-595.2,506.3z"/>
				</g>
			</g>
			<g>
				<g>
					<path class="st5" d="M-593.9,499.8c0.2,0.2,0.2,0.4,0.2,0.6c0,0.5,0.8,0.5,0.8,0c0-0.4-0.2-0.8-0.5-1.1
						C-593.7,498.9-594.2,499.5-593.9,499.8L-593.9,499.8z"/>
				</g>
			</g>
			<g>
				<g>
					<path class="st5" d="M-592,497.5c0,0.3,0,0.7,0,1c0,0.5,0.8,0.5,0.8,0c0-0.3,0-0.7,0-1C-591.2,497-592,497-592,497.5
						L-592,497.5z"/>
				</g>
			</g>
			<g>
				<g>
					<path class="st5" d="M-587.2,502.1c0.1,0.1,0.2,0.2,0.3,0.4c0.3,0.4,0.9-0.2,0.5-0.6c-0.1-0.1-0.2-0.2-0.3-0.4
						C-586.9,501.1-587.5,501.7-587.2,502.1L-587.2,502.1z"/>
				</g>
			</g>
			<g>
				<g>
					<path class="st5" d="M-586.4,497.4c0.3,0,0.7,0,1,0.1c0.5,0,0.5-0.7,0-0.8c-0.3,0-0.7,0-1-0.1
						C-586.9,496.6-586.9,497.4-586.4,497.4L-586.4,497.4z"/>
				</g>
			</g>
			<g>
				<g>
					<path class="st5" d="M-585.3,491.2c0.2,0.2,0.5,0.5,0.7,0.7c0.4,0.4,0.9-0.2,0.5-0.5c-0.2-0.2-0.5-0.5-0.7-0.7
						C-585.1,490.3-585.6,490.8-585.3,491.2L-585.3,491.2z"/>
				</g>
			</g>
			<g>
				<g>
					<path class="st5" d="M-582.3,489.2c0,0.4,0,0.8,0,1.2c0,0.5,0.8,0.5,0.8,0c0-0.4,0-0.8,0-1.2
						C-581.5,488.7-582.3,488.7-582.3,489.2L-582.3,489.2z"/>
				</g>
			</g>
			<g>
				<g>
					<path class="st5" d="M-580.9,496.5c0.1-0.2,0.2-0.3,0.3-0.5c0.3-0.4-0.4-0.8-0.7-0.4c-0.1,0.2-0.2,0.3-0.3,0.5
						C-581.8,496.5-581.1,496.9-580.9,496.5L-580.9,496.5z"/>
				</g>
			</g>
			<g>
				<g>
					<path class="st5" d="M-583.5,504.1c0.3-0.1,0.6-0.2,0.9-0.3c0.5-0.2,0.3-0.9-0.2-0.8c-0.3,0.1-0.6,0.2-0.9,0.3
						C-584.2,503.5-584,504.3-583.5,504.1L-583.5,504.1z"/>
				</g>
			</g>
			<g>
				<g>
					<path class="st5" d="M-580.1,503c0.3-0.1,0.6-0.1,0.9-0.2c0.5-0.1,0.3-0.9-0.2-0.8c-0.3,0.1-0.6,0.1-0.9,0.2
						C-580.8,502.4-580.6,503.1-580.1,503L-580.1,503z"/>
				</g>
			</g>
			<g>
				<g>
					<path class="st5" d="M-582.3,506.6c0,0.1,0,0.1,0,0.2c0,0.5,0.8,0.5,0.8,0c0-0.1,0-0.1,0-0.2
						C-581.5,506.1-582.3,506.1-582.3,506.6L-582.3,506.6z"/>
				</g>
			</g>
			<g>
				<g>
					<path class="st5" d="M-589,518.6c0.2-0.1,0.3-0.2,0.5-0.3c0.4-0.3,0-1-0.4-0.7c-0.2,0.1-0.3,0.2-0.5,0.3
						C-589.8,518.2-589.4,518.8-589,518.6L-589,518.6z"/>
				</g>
			</g>
			<g>
				<g>
					<path class="st5" d="M-589.4,521.4c0.3-0.3,0.6-0.5,1.1-0.6s0.3-0.9-0.2-0.8s-1,0.4-1.4,0.8
						C-590.3,521.2-589.8,521.8-589.4,521.4L-589.4,521.4z"/>
				</g>
			</g>
			<g>
				<g>
					<path class="st5" d="M-592.6,521.9c0.1,0.1,0.1,0.2,0.2,0.3c0.2,0.4,0.9,0.1,0.7-0.4c-0.1-0.1-0.1-0.2-0.2-0.3
						C-592.2,521-592.8,521.4-592.6,521.9L-592.6,521.9z"/>
				</g>
			</g>
			<g>
				<g>
					<path class="st5" d="M-595.6,522.7c0.4,0.2,0.9,0.3,1.3,0.2c0.5-0.1,0.3-0.8-0.2-0.8c-0.3,0.1-0.5,0-0.7-0.1
						C-595.6,521.8-596,522.5-595.6,522.7L-595.6,522.7z"/>
				</g>
			</g>
			<g>
				<g>
					<path class="st5" d="M-589.2,515.3c0.5-0.1,1-0.1,1.6-0.2c0.5-0.1,0.5-0.8,0-0.8c-0.5,0.1-1,0.1-1.6,0.2
						C-589.6,514.6-589.6,515.4-589.2,515.3L-589.2,515.3z"/>
				</g>
			</g>
		</g>
		<g>
			<g>
				<g>
					<path class="st11" d="M-519.5,481.3c8.4-7.6,16.7-15.1,25.1-22.7c1.2-1.1-0.6-3-1.8-1.8c-8.4,7.6-16.7,15.1-25.1,22.7
						C-522.6,480.5-520.7,482.4-519.5,481.3L-519.5,481.3z"/>
				</g>
			</g>
			<g>
				<g>
					<path class="st11" d="M-491.1,492.8c8.4-7.6,16.7-15.1,25.1-22.7c1.2-1.1-0.6-3-1.8-1.8c-8.4,7.6-16.7,15.1-25.1,22.7
						C-494.2,492.1-492.3,494-491.1,492.8L-491.1,492.8z"/>
				</g>
			</g>
			<g>
				<g>
					<path class="st11" d="M-521.9,501.4c17.5-17.1,35.1-34.2,52.6-51.3c1.2-1.2-0.6-3-1.8-1.8c-17.5,17.1-35.1,34.2-52.6,51.3
						C-525,500.8-523.1,502.6-521.9,501.4L-521.9,501.4z"/>
				</g>
			</g>
		</g>
		<g>
			<g>
				<g>
					<g>
						<g>
							<rect x="-442.6" y="341.8" class="st8" width="1.1" height="72.4"/>
						</g>
					</g>
					<g>
						<g>
							<circle class="st8" cx="-442.1" cy="414.3" r="4.6"/>
						</g>
					</g>
					<g>
						<g>
							<path class="st8" d="M-442,429.7c-0.1,0-1.6,0-2.7-1.1c-0.7-0.7-1.1-1.7-1.1-3c0-0.3,0.3-0.6,0.6-0.6c0.3,0,0.6,0.3,0.6,0.6
								c0,0.9,0.3,1.7,0.7,2.2c0.7,0.7,1.8,0.8,1.8,0.8c1.7,0,3.1-1.4,3.1-3.1s-1.4-3.1-3.1-3.1c-0.3,0-0.6-0.3-0.6-0.6v-3.4
								c0-0.3,0.3-0.6,0.6-0.6c0.3,0,0.6,0.3,0.6,0.6v2.8c2.1,0.3,3.7,2.1,3.7,4.3C-437.7,427.7-439.6,429.7-442,429.7L-442,429.7z"
								/>
						</g>
					</g>
				</g>
				<g>
					<g>
						<g>
							<path class="st8" d="M-466.1,432.5c-0.2,0-0.4-0.2-0.5-0.5c0-0.3,0.2-0.6,0.5-0.6l24.9-3.7c0.3,0,0.6,0.2,0.6,0.5
								c0,0.3-0.2,0.6-0.5,0.6l-24.9,3.7H-466.1z"/>
						</g>
					</g>
					<g>
						<g>
							<path class="st8" d="M-418.4,440.8c-0.1,0-0.1,0-0.2-0.1l-22.9-11.9c-0.3-0.1-0.4-0.5-0.2-0.8c0.1-0.3,0.5-0.4,0.8-0.2
								l22.9,11.9c0.3,0.1,0.4,0.5,0.2,0.8C-417.9,440.7-418.1,440.8-418.4,440.8z"/>
						</g>
					</g>
					<g>
						<path class="st7" d="M-420.2,488.6l-61-10.6c-3.2-0.6-5.3-3.6-4.8-6.8l6.1-35.1c0.6-3.2,3.6-5.3,6.8-4.8l61,10.6
							c3.2,0.6,5.3,3.6,4.8,6.8l-6.1,35.1C-414,487-417,489.1-420.2,488.6z"/>
						<path class="st8" d="M-419.4,489.4c-0.4,0-0.8,0-1.2-0.1l-60.5-10.5c-1.8-0.3-3.4-1.3-4.4-2.8c-1.1-1.5-1.5-3.3-1.1-5.1
							l6-34.7c0.6-3.7,4.2-6.2,7.9-5.6l60.5,10.5c1.8,0.3,3.4,1.3,4.4,2.8c1.1,1.5,1.5,3.3,1.2,5.1l-6,34.7
							C-413.2,487-416.1,489.4-419.4,489.4z M-473.9,432c-2.5,0-4.8,1.8-5.2,4.4l-6,34.7c-0.2,1.4,0.1,2.8,0.9,4
							c0.8,1.2,2,1.9,3.4,2.2l60.5,10.5c2.9,0.5,5.6-1.4,6.1-4.3l6-34.7c0.2-1.4-0.1-2.8-0.9-4c-0.8-1.2-2-1.9-3.4-2.2l-60.5-10.5
							C-473.3,432.1-473.6,432-473.9,432z"/>
					</g>
					<g>
						<path class="st9" d="M-420.7,484.8l-58.8-10.2c-2-0.4-3.4-2.3-3.1-4.3l5.6-32c0.4-2,2.3-3.4,4.3-3.1l58.8,10.2
							c2,0.4,3.4,2.3,3.1,4.3l-5.6,32C-416.7,483.8-418.7,485.1-420.7,484.8z"/>
						<path class="st6" d="M-420.2,485.6c-0.3,0-0.5,0-0.8-0.1l-58.5-10.2c-1.2-0.2-2.3-0.9-3-1.9s-1-2.3-0.8-3.5l5.5-31.8
							c0.4-2.5,2.9-4.2,5.4-3.8l58.5,10.2c2.5,0.4,4.2,2.9,3.8,5.4l-5.5,31.8c-0.2,1.2-0.9,2.3-1.9,3
							C-418.3,485.3-419.2,485.6-420.2,485.6z M-420.7,484c0.8,0.1,1.6,0,2.3-0.5c0.7-0.5,1.1-1.2,1.3-2l5.5-31.8
							c0.3-1.7-0.8-3.3-2.5-3.6l-58.5-10.2c-1.7-0.3-3.3,0.8-3.6,2.5l-5.5,31.8c-0.1,0.8,0,1.6,0.5,2.3c0.5,0.7,1.2,1.1,2,1.3
							L-420.7,484z"/>
					</g>
					<g>
						<polygon class="st7" points="-448.6,479.9 -433.4,466 -425,484 						"/>
						<path class="st8" d="M-424.1,484.7l-25.6-4.5l16.5-15.1L-424.1,484.7z M-447.5,479.6l21.6,3.8l-7.7-16.5L-447.5,479.6z"/>
					</g>
					<g>
						<polygon class="st7" points="-478.7,474.7 -451.7,450 -436.8,482 						"/>
						<path class="st8" d="M-435.9,482.7l-43.9-7.6l28.3-25.9L-435.9,482.7z M-477.5,474.4l39.9,6.9l-14.2-30.5L-477.5,474.4z"/>
					</g>
					<g>
						<circle class="st7" cx="-423.3" cy="454" r="3.8"/>
						<path class="st8" d="M-423.3,458.3c-0.2,0-0.5,0-0.7-0.1c-2.3-0.4-3.9-2.6-3.5-5c0.2-1.1,0.8-2.1,1.8-2.8
							c0.9-0.7,2.1-0.9,3.2-0.7c1.1,0.2,2.1,0.8,2.8,1.8c0.7,0.9,0.9,2.1,0.7,3.2c-0.2,1.1-0.8,2.1-1.8,2.8
							C-421.6,458-422.5,458.3-423.3,458.3z M-423.3,450.8c-0.7,0-1.3,0.2-1.9,0.6c-0.7,0.5-1.2,1.2-1.3,2.1c-0.1,0.9,0,1.7,0.5,2.4
							c0.5,0.7,1.2,1.2,2.1,1.3s1.7,0,2.4-0.5c0.7-0.5,1.2-1.2,1.3-2.1l0,0c0.3-1.8-0.9-3.5-2.6-3.8
							C-423,450.8-423.2,450.8-423.3,450.8z"/>
					</g>
				</g>
				<g>
					<g>
						<rect x="-452" y="339.4" class="st9" width="56.5" height="6.2"/>
					</g>
				</g>
				<g>
					<g>
						<g>
							<g>
								<g>
									<g>
										<path class="st8" d="M-346.3,468h-18.8V302.1h18.8V468z M-363.2,466.1h15.1V303.9h-15.1V466.1z"/>
									</g>
								</g>
								<g>
									<g>
										<g>
											<path class="st8" d="M-346.5,320.3h-18.3V302h18.3V320.3z M-363,318.4h14.5v-14.5H-363V318.4z"/>
										</g>
									</g>
									<g>
										<g>
											
												<rect x="-367.3" y="310.2" transform="matrix(-0.7071 -0.7071 0.7071 -0.7071 -827.2477 279.6071)" class="st8" width="23.2" height="1.9"/>
										</g>
									</g>
									<g>
										<g>
											
												<rect x="-356.6" y="299.5" transform="matrix(-0.7071 -0.7071 0.7071 -0.7071 -827.1289 279.6573)" class="st8" width="1.9" height="23.2"/>
										</g>
									</g>
								</g>
								<g>
									<g>
										<g>
											<path class="st8" d="M-346.5,336.7h-18.3v-18.3h18.3V336.7z M-363,334.8h14.5v-14.5H-363V334.8z"/>
										</g>
									</g>
									<g>
										<g>
											
												<rect x="-367.3" y="326.6" transform="matrix(-0.7071 -0.7071 0.7071 -0.7071 -838.8318 307.618)" class="st8" width="23.2" height="1.9"/>
										</g>
									</g>
									<g>
										<g>
											
												<rect x="-356.6" y="315.9" transform="matrix(-0.7071 -0.7071 0.7071 -0.7071 -838.7112 307.6679)" class="st8" width="1.9" height="23.2"/>
										</g>
									</g>
								</g>
								<g>
									<g>
										<g>
											<path class="st8" d="M-346.5,353.1h-18.3v-18.3h18.3V353.1z M-363,351.2h14.5v-14.5H-363V351.2z"/>
										</g>
									</g>
									<g>
										<g>
											
												<rect x="-367.3" y="343" transform="matrix(-0.7071 -0.7071 0.7071 -0.7071 -850.4095 335.6286)" class="st8" width="23.2" height="1.9"/>
										</g>
									</g>
									<g>
										<g>
											
												<rect x="-356.6" y="332.3" transform="matrix(-0.7071 -0.7071 0.7071 -0.7071 -850.3192 335.6795)" class="st8" width="1.9" height="23.2"/>
										</g>
									</g>
								</g>
								<g>
									<g>
										<g>
											<path class="st8" d="M-346.5,369.5h-18.3v-18.3h18.3V369.5z M-363,367.6h14.5v-14.5H-363V367.6z"/>
										</g>
									</g>
									<g>
										<g>
											
												<rect x="-367.3" y="359.4" transform="matrix(-0.7071 -0.7071 0.7071 -0.7071 -861.9935 363.6396)" class="st8" width="23.2" height="1.9"/>
										</g>
									</g>
									<g>
										<g>
											
												<rect x="-356.6" y="348.8" transform="matrix(-0.7071 -0.7071 0.7071 -0.7071 -862.0457 363.7602)" class="st8" width="1.9" height="23.2"/>
										</g>
									</g>
								</g>
								<g>
									<g>
										<g>
											<path class="st8" d="M-346.5,385.9h-18.3v-18.3h18.3V385.9z M-363,384h14.5v-14.5H-363V384z"/>
										</g>
									</g>
									<g>
										<g>
											
												<rect x="-367.3" y="375.8" transform="matrix(-0.7071 -0.7071 0.7071 -0.7071 -873.5778 391.6501)" class="st8" width="23.2" height="1.9"/>
										</g>
									</g>
									<g>
										<g>
											
												<rect x="-356.6" y="365.2" transform="matrix(-0.7071 -0.7071 0.7071 -0.7071 -873.6548 391.7696)" class="st8" width="1.9" height="23.2"/>
										</g>
									</g>
								</g>
								<g>
									<g>
										<g>
											<path class="st8" d="M-346.5,402.3h-18.3V384h18.3V402.3z M-363,400.5h14.5V386H-363V400.5z"/>
										</g>
									</g>
									<g>
										<g>
											
												<rect x="-367.3" y="392.3" transform="matrix(-0.7071 -0.7071 0.7071 -0.7071 -885.326 419.732)" class="st8" width="23.2" height="1.9"/>
										</g>
									</g>
									<g>
										<g>
											
												<rect x="-356.6" y="381.6" transform="matrix(-0.7071 -0.7071 0.7071 -0.7071 -885.2372 419.7793)" class="st8" width="1.9" height="23.2"/>
										</g>
									</g>
								</g>
								<g>
									<g>
										<g>
											<path class="st8" d="M-346.5,418.8h-18.3v-18.3h18.3V418.8z M-363,416.9h14.5v-14.5H-363V416.9z"/>
										</g>
									</g>
									<g>
										<g>
											
												<rect x="-367.3" y="408.7" transform="matrix(-0.7071 -0.7071 0.7071 -0.7071 -896.9124 447.7424)" class="st8" width="23.2" height="1.9"/>
										</g>
									</g>
									<g>
										<g>
											
												<rect x="-356.6" y="398" transform="matrix(-0.7071 -0.7071 0.7071 -0.7071 -896.8196 447.789)" class="st8" width="1.9" height="23.2"/>
										</g>
									</g>
								</g>
								<g>
									<g>
										<g>
											<path class="st8" d="M-346.5,435.2h-18.3v-18.3h18.3V435.2z M-363,433.3h14.5v-14.5H-363V433.3z"/>
										</g>
									</g>
									<g>
										<g>
											
												<rect x="-367.3" y="425.1" transform="matrix(-0.7071 -0.7071 0.7071 -0.7071 -908.4921 475.7534)" class="st8" width="23.2" height="1.9"/>
										</g>
									</g>
									<g>
										<g>
											
												<rect x="-356.6" y="414.4" transform="matrix(-0.7071 -0.7071 0.7071 -0.7071 -908.4021 475.7986)" class="st8" width="1.9" height="23.2"/>
										</g>
									</g>
								</g>
								<g>
									<g>
										<g>
											<path class="st8" d="M-346.5,451.6h-18.3v-18.3h18.3V451.6z M-363,449.7h14.5v-14.5H-363V449.7z"/>
										</g>
									</g>
									<g>
										<g>
											
												<rect x="-367.3" y="441.5" transform="matrix(-0.7071 -0.7071 0.7071 -0.7071 -920.0764 503.7639)" class="st8" width="23.2" height="1.9"/>
										</g>
									</g>
									<g>
										<g>
											
												<rect x="-356.6" y="430.8" transform="matrix(-0.7071 -0.7071 0.7071 -0.7071 -919.9846 503.8083)" class="st8" width="1.9" height="23.2"/>
										</g>
									</g>
								</g>
								<g>
									<g>
										<g>
											<path class="st8" d="M-346.5,468h-18.3v-18.3h18.3V468z M-363,466.1h14.5v-14.5H-363V466.1z"/>
										</g>
									</g>
									<g>
										<g>
											
												<rect x="-367.3" y="457.9" transform="matrix(-0.7071 -0.7071 0.7071 -0.7071 -931.6513 531.7761)" class="st8" width="23.2" height="1.9"/>
										</g>
									</g>
									<g>
										<g>
											
												<rect x="-356.6" y="447.2" transform="matrix(-0.707 -0.7072 0.7072 -0.707 -931.5117 531.7513)" class="st8" width="1.9" height="23.2"/>
										</g>
									</g>
								</g>
							</g>
							<g>
								<g>
									<g>
										<g>
											<path class="st8" d="M-313.9,336.4h-18.3v-18.3h18.3V336.4z M-330.3,334.6h14.5V320h-14.5V334.6z"/>
										</g>
									</g>
									<g>
										<g>
											
												<rect x="-324" y="315.7" transform="matrix(-0.7072 -0.707 0.707 -0.7072 -782.9382 330.3375)" class="st8" width="1.9" height="23.2"/>
										</g>
									</g>
									<g>
										<g>
											
												<rect x="-334.6" y="326.4" transform="matrix(-0.7071 -0.7071 0.7071 -0.7071 -782.9519 330.3893)" class="st8" width="23.2" height="1.9"/>
										</g>
									</g>
								</g>
								<g>
									<g>
										<g>
											<path class="st8" d="M-330.3,336.4h-18.3v-18.3h18.3V336.4z M-346.7,334.6h14.5V320h-14.5V334.6z"/>
										</g>
									</g>
									<g>
										<g>
											
												<rect x="-340.4" y="315.7" transform="matrix(-0.7072 -0.707 0.707 -0.7072 -810.9493 318.7564)" class="st8" width="1.9" height="23.2"/>
										</g>
									</g>
									<g>
										<g>
											
												<rect x="-351.1" y="326.4" transform="matrix(-0.7071 -0.7071 0.7071 -0.7071 -810.9604 318.807)" class="st8" width="23.2" height="1.9"/>
										</g>
									</g>
								</g>
								<g>
									<g>
										<path class="st8" d="M-346.7,336.4H-365v-18.3h18.3V336.4z M-363.1,334.6h14.5V320h-14.5V334.6z"/>
									</g>
								</g>
								<g>
									<g>
										<g>
											<path class="st8" d="M-363.1,336.4h-18.3v-18.3h18.3V336.4z M-379.5,334.6h14.5V320h-14.5V334.6z"/>
										</g>
									</g>
									<g>
										<g>
											
												<rect x="-373.2" y="315.7" transform="matrix(-0.7071 -0.7071 0.7071 -0.7071 -866.9364 295.5229)" class="st8" width="1.9" height="23.2"/>
										</g>
									</g>
									<g>
										<g>
											
												<rect x="-383.9" y="326.4" transform="matrix(-0.7071 -0.7071 0.7071 -0.7071 -867.053 295.4726)" class="st8" width="23.2" height="1.9"/>
										</g>
									</g>
								</g>
								<g>
									<g>
										<g>
											<path class="st8" d="M-379.5,336.4h-18.3v-18.3h18.3V336.4z M-396,334.6h14.5V320H-396V334.6z"/>
										</g>
									</g>
									<g>
										<g>
											
												<rect x="-389.6" y="315.7" transform="matrix(-0.7071 -0.7071 0.7071 -0.7071 -894.9453 283.9409)" class="st8" width="1.9" height="23.2"/>
										</g>
									</g>
									<g>
										<g>
											
												<rect x="-400.3" y="326.4" transform="matrix(-0.7071 -0.7071 0.7071 -0.7071 -895.0696 283.8911)" class="st8" width="23.2" height="1.9"/>
										</g>
									</g>
								</g>
								<g>
									<g>
										<g>
											<path class="st8" d="M-396,336.4h-18.3v-18.3h18.3V336.4z M-412.4,334.6h14.5V320h-14.5V334.6z"/>
										</g>
									</g>
									<g>
										<g>
											<path class="st8" d="M-413.3,336.4h-16.4c-0.4,0-0.7-0.2-0.9-0.6c-0.1-0.4-0.1-0.8,0.2-1l16.4-16.4l1.3,1.3l-14.8,14.8
												h13.8l16.1-16.1l1.3,1.3l-16.4,16.4C-412.8,336.3-413.1,336.4-413.3,336.4z"/>
										</g>
									</g>
									<g>
										<g>
											
												<rect x="-416.7" y="326.4" transform="matrix(-0.7071 -0.7071 0.7071 -0.7071 -923.0753 272.3089)" class="st8" width="23.2" height="1.9"/>
										</g>
									</g>
								</g>
							</g>
						</g>
						<g>
							<g>
								<g>
									<path class="st8" d="M-346.3,486.3h-18.8V468h18.8V486.3z M-363.1,484.4h14.9v-14.5h-14.9V484.4z"/>
								</g>
							</g>
							<g>
								<g>
									<polygon class="st8" points="-347.9,486 -364.8,469.6 -363.4,468.3 -346.5,484.7 									"/>
								</g>
							</g>
							<g>
								<g>
									<polygon class="st8" points="-363.4,486 -364.8,484.7 -347.9,468.3 -346.5,469.6 									"/>
								</g>
							</g>
						</g>
						<g>
							<g>
								<g>
									<path class="st8" d="M-346.3,551.9h-18.8v-18.3h18.8V551.9z M-363.1,550.1h14.9v-14.5h-14.9V550.1z"/>
								</g>
							</g>
							<g>
								<g>
									<polygon class="st8" points="-347.9,551.7 -364.8,535.2 -363.4,533.9 -346.5,550.3 									"/>
								</g>
							</g>
							<g>
								<g>
									<polygon class="st8" points="-363.4,551.7 -364.8,550.3 -347.9,533.9 -346.5,535.2 									"/>
								</g>
							</g>
						</g>
					</g>
					<g>
						<g>
							<g>
								<path class="st8" d="M-346.3,501.1h-18.8v-18.3h18.8V501.1z M-363.1,499.3h14.9v-14.5h-14.9V499.3z"/>
							</g>
						</g>
						<g>
							<g>
								<polygon class="st8" points="-347.9,500.9 -364.8,484.4 -363.4,483.1 -346.5,499.5 								"/>
							</g>
						</g>
						<g>
							<g>
								<polygon class="st8" points="-363.4,500.9 -364.8,499.5 -347.9,483.1 -346.5,484.4 								"/>
							</g>
						</g>
					</g>
					<g>
						<g>
							<g>
								<path class="st8" d="M-346.3,517.5h-18.8v-18.3h18.8V517.5z M-363.1,515.7h14.9v-14.5h-14.9V515.7z"/>
							</g>
						</g>
						<g>
							<g>
								<polygon class="st8" points="-347.9,517.3 -364.8,500.9 -363.4,499.5 -346.5,515.9 								"/>
							</g>
						</g>
						<g>
							<g>
								<polygon class="st8" points="-363.4,517.3 -364.8,515.9 -347.9,499.5 -346.5,500.9 								"/>
							</g>
						</g>
					</g>
					<g>
						<g>
							<g>
								<path class="st8" d="M-346.3,534h-18.8v-18.3h18.8V534z M-363.1,532.1h14.9v-14.5h-14.9V532.1z"/>
							</g>
						</g>
						<g>
							<g>
								<polygon class="st8" points="-347.9,533.7 -364.8,517.3 -363.4,515.9 -346.5,532.4 								"/>
							</g>
						</g>
						<g>
							<g>
								<polygon class="st8" points="-363.4,533.7 -364.8,532.4 -347.9,515.9 -346.5,517.3 								"/>
							</g>
						</g>
					</g>
				</g>
			</g>
		</g>
		<g>
			<path class="st6" d="M-556.1,400"/>
			<g>
				<path class="st6" d="M-556.1,401.5c2,0,2-3.1,0-3.1S-558.1,401.5-556.1,401.5L-556.1,401.5z"/>
			</g>
		</g>
		<g>
			<path class="st6" d="M-387.4,367.5"/>
			<g>
				<path class="st6" d="M-387.4,369c2,0,2-3.1,0-3.1S-389.4,369-387.4,369L-387.4,369z"/>
			</g>
		</g>
		<g>
			<path class="st6" d="M-317.6,478.8c0.2,0,0.5,0,0.7,0"/>
			<g>
				<path class="st6" d="M-317.6,480.4c0.2,0,0.5,0,0.7,0c0.8,0,1.6-0.7,1.6-1.6c0-0.8-0.7-1.6-1.6-1.6c-0.2,0-0.5,0-0.7,0
					c-0.8,0-1.6,0.7-1.6,1.6C-319.1,479.6-318.5,480.4-317.6,480.4L-317.6,480.4z"/>
			</g>
		</g>
		<g>
			<path class="st6" d="M-617.7,501.6"/>
			<g>
				<path class="st6" d="M-617.7,503.2c2,0,2-3.1,0-3.1S-619.7,503.2-617.7,503.2L-617.7,503.2z"/>
			</g>
		</g>
		<g>
			<path class="st6" d="M-469,352.3"/>
			<g>
				<path class="st6" d="M-469,353.8c2,0,2-3.1,0-3.1S-471,353.8-469,353.8L-469,353.8z"/>
			</g>
		</g>
	</g>
</g>
<g id="DESIGNED_BY_FREEPIK" class="st12">
</g>
</svg>
