<?xml version="1.0" encoding="utf-8"?>
<!-- Generator: Adobe Illustrator 19.0.0, SVG Export Plug-In . SVG Version: 6.00 Build 0)  -->
<svg version="1.1" xmlns="http://www.w3.org/2000/svg" xmlns:xlink="http://www.w3.org/1999/xlink" x="0px" y="0px"
	 viewBox="0 0 910 740" style="enable-background:new 0 0 910 740;" xml:space="preserve">
<style type="text/css">
	.st0{fill:#F7F7F7;}
	.st1{opacity:0.74;fill:#48BD98;}
	.st2{fill:url(#XMLID_6818_);}
	.st3{fill:url(#XMLID_6819_);}
	.st4{fill:#FFE4A1;}
	.st5{fill:none;stroke:#353A47;stroke-width:0.5039;stroke-miterlimit:10;}
	.st6{opacity:0.3;fill:url(#XMLID_6820_);}
	.st7{fill:url(#XMLID_6821_);}
	.st8{fill:#636464;}
	.st9{fill:url(#XMLID_6822_);}
	.st10{fill:url(#XMLID_6823_);}
	.st11{fill:#FFFFFF;}
	.st12{fill:none;stroke:#FFFFFF;stroke-width:0.6877;stroke-miterlimit:10;}
	.st13{fill:#ED1D60;}
	.st14{opacity:0.65;fill:url(#XMLID_6824_);}
	.st15{opacity:0.3;fill:url(#XMLID_6825_);}
	.st16{fill:#FAA51A;}
	.st17{opacity:0.4;fill:#010101;}
	.st18{fill:#353A47;}
	.st19{fill:none;stroke:#805020;stroke-width:0.5222;stroke-miterlimit:10;}
	.st20{fill:none;stroke:#353A47;stroke-width:0.7638;stroke-miterlimit:10;}
	.st21{fill:#805020;}
	.st22{opacity:0.2;fill:#FFFFFF;}
	.st23{fill:#FFCB44;}
	.st24{fill:#297086;}
	.st25{fill:none;stroke:#636464;stroke-width:0.7638;stroke-miterlimit:10;}
	.st26{fill:#39A2C2;}
	.st27{opacity:0.4;}
	.st28{fill:#010101;}
	.st29{fill:none;stroke:#730E2C;stroke-width:0.7638;stroke-miterlimit:10;}
	.st30{fill:none;stroke:#730E2C;stroke-width:0.5222;stroke-miterlimit:10;}
	.st31{opacity:0.6;fill:url(#XMLID_6826_);}
	.st32{opacity:0.6;fill:url(#XMLID_6827_);}
	.st33{opacity:0.6;fill:url(#XMLID_6828_);}
	.st34{opacity:0.6;fill:url(#XMLID_6829_);}
	.st35{opacity:0.6;fill:url(#XMLID_6830_);}
	.st36{opacity:0.6;fill:url(#XMLID_6831_);}
	.st37{fill:#5A9F71;}
	.st38{opacity:0.6;fill:url(#XMLID_6832_);}
	.st39{opacity:0.6;fill:url(#XMLID_6833_);}
	.st40{fill:none;stroke:#353A47;stroke-width:0.2444;stroke-miterlimit:10;}
	.st41{fill:#F79B88;}
	.st42{opacity:0.3;fill:url(#XMLID_6834_);}
	.st43{fill:none;stroke:#BBBBBB;stroke-width:0.2712;stroke-miterlimit:10;}
	.st44{opacity:0.3;fill:url(#XMLID_6835_);}
	.st45{opacity:0.3;fill:url(#XMLID_6836_);}
	.st46{opacity:0.6;fill:url(#XMLID_6837_);}
	.st47{opacity:0.3;fill:url(#XMLID_6838_);}
	.st48{opacity:0.3;fill:url(#XMLID_6839_);}
	.st49{fill:none;stroke:#353A47;stroke-width:0.2611;stroke-miterlimit:10;}
	.st50{opacity:0.3;fill:url(#XMLID_6840_);}
	.st51{fill:none;stroke:#1C4C5A;stroke-width:0.2712;stroke-miterlimit:10;}
	.st52{opacity:0.6;fill:url(#XMLID_6841_);}
	.st53{opacity:0.6;fill:url(#XMLID_6842_);}
	.st54{opacity:0.2;fill:url(#XMLID_6843_);}
	.st55{fill:none;stroke:#353A47;stroke-width:0.6877;stroke-miterlimit:10;}
	.st56{opacity:0.6;fill:url(#XMLID_6844_);}
	.st57{fill:#273238;}
	.st58{fill:#F5F6F6;}
	.st59{fill:#4ABD98;}
	.st60{opacity:0.5;}
	.st61{opacity:0.3;}
	.st62{fill:#FAFAFA;}
	.st63{fill:#465B65;}
	.st64{fill-rule:evenodd;clip-rule:evenodd;fill:#40553D;}
	.st65{fill-rule:evenodd;clip-rule:evenodd;fill:#172624;}
	.st66{fill-rule:evenodd;clip-rule:evenodd;fill:#758340;}
	.st67{fill-rule:evenodd;clip-rule:evenodd;fill:#1D261A;}
	.st68{fill-rule:evenodd;clip-rule:evenodd;fill:#A0B95C;}
	.st69{fill-rule:evenodd;clip-rule:evenodd;fill:#C7D86F;}
</style>
<g id="Light_BG">
	<rect id="XMLID_6816_" class="st0" width="910" height="740"/>
</g>
<g id="Delivery_-_Circle">
	<g id="XMLID_58_">
		<circle id="XMLID_476_" class="st1" cx="503.2" cy="358.9" r="315"/>
		<linearGradient id="XMLID_6818_" gradientUnits="userSpaceOnUse" x1="26.9913" y1="417.3015" x2="265.3481" y2="417.3015">
			<stop  offset="0" style="stop-color:#FFCB44"/>
			<stop  offset="0.1206" style="stop-color:#F3C94D"/>
			<stop  offset="0.3399" style="stop-color:#D8C760"/>
			<stop  offset="0.633" style="stop-color:#A7C27A"/>
			<stop  offset="0.9855" style="stop-color:#4EBC97"/>
			<stop  offset="1" style="stop-color:#48BD98"/>
		</linearGradient>
		<circle id="XMLID_475_" class="st2" cx="146.2" cy="417.3" r="119.2"/>
		<linearGradient id="XMLID_6819_" gradientUnits="userSpaceOnUse" x1="637.0251" y1="375.9102" x2="637.0251" y2="501.7626">
			<stop  offset="0" style="stop-color:#F38CB4"/>
			<stop  offset="9.905416e-002" style="stop-color:#F48EB1"/>
			<stop  offset="0.2628" style="stop-color:#F596A8"/>
			<stop  offset="0.4708" style="stop-color:#F7A398"/>
			<stop  offset="0.7151" style="stop-color:#FBB47D"/>
			<stop  offset="0.9872" style="stop-color:#FFCA48"/>
			<stop  offset="1" style="stop-color:#FFCB44"/>
		</linearGradient>
		<path id="XMLID_59_" class="st3" d="M783.3,496.7c-6.1-75.5-69.2-134.8-146.2-134.8s-140.2,59.4-146.2,134.8H783.3z"/>
		<g id="XMLID_60_">
			<path id="XMLID_61_" class="st4" d="M300.4,198c-4-3.8,9.4-12.7,15.6-17.9c6.2-5.1,19.1-5.4,31.8-3.9c12.7,1.5,24.6,1.9,31.2-0.8
				c6.6-2.7,8.6-1.5,8.4,0.8s-16,6.4-15.4,11.3c0.6,4.9,6,1,8.4,3.9c2.5,2.9,3.1,6.8,8,4.7c4.9-2.1,4.5-5.3,5.5-7
				c1-1.6,5.1-2.7,6.6,3.1c1.4,5.8,11.2,4.5,12.5,7.6s-2,3.9-7.4,3c-5.3-0.9-11.1,3.6-15.6,13.2c-4.5,9.7-11.7,24.4-20.5,26.7
				c-8.8,2.3-19-0.6-24.2,1.6c-4.4,1.9-6,8.6,1.4,11.5c7.4,2.9,12.6,1,15,2.5c4,2.5-0.2,5.2,2.2,8.2c2.4,3,4.9,2.9,4.6,4.5
				c-0.3,1.6-1.5,3-1.3,4.8c0.2,1.8-2.2,3.2-3.6,0c-1.4-3.2-2.7-4.6-4.5-5c-1.8-0.4-4,0.5-5.5-4c-1.5-4.5-6.9-5.6-11.8-4.1
				c-4.9,1.5-9.9,0.5-11.9-4.8c-2.1-5.3-6.3-20.3-10.4-26.7c-4.1-6.4-9.9-11.2-8.5-14.6c1.3-3.4,10.4-8.8,12.2-16.9
				c1.8-8.1-3.8-9.3-8.5-6.5C309.9,196.1,303.9,201.3,300.4,198z"/>
			<path id="XMLID_62_" class="st4" d="M367.5,298.7c6.2,5,3,10.7,4.9,17.8c1.9,7.1,10.7,9.6,12,18.9c1.4,9.3,2.2,30.4,2.7,38.3
				s8.2,18.6,12.3,17.3c4.1-1.4-1.9-6.3,3-12.6c4.9-6.3,8.5-8.5,8.5-14s4.1-3.6,7.7-7.4c3.6-3.8,3-7.1,6.8-13.7
				c3.8-6.6,9.3-4.9,11.5-17c2.2-12,6.6-24.1,0-27.7c-6.6-3.6-10.1-0.3-14-7.8c-3.8-7.5-8.5-7.5-14.8-7.2c-6.3,0.3-7.4-2.2-11.5-7.1
				c-4.1-4.9-14.8-9.6-18.9-7.7c-4.1,1.9-3.6,9.8-6.8,15.3C367.8,289.8,361.7,294.1,367.5,298.7z"/>
			<path id="XMLID_63_" class="st4" d="M458.6,204.7c5.7,3.1-0.4,7.4,2.3,10.3c2.7,2.9,5.5,4.5,10.1,2.1c4.5-2.5,8.4-5.4,12.5,1.2
				c4.1,6.6,12.3,15.4,18.1,22c5.8,6.6,9.9,11.5,14.4,11.5c4.5,0,6.2-4.7,9.9-3.3c3.7,1.4,3.3,8.8,1.8,11.7
				c-1.4,2.9-13.6,21.2-13.8,27.3c-0.2,6.2,1.4,11.7-1.2,16.4c-2.7,4.7-13.9,10.1-18.2,13.8c-4.3,3.7-8,12.9-9.6,16.8
				c-1.5,3.9-11.2,11.7-17,11.3c-5.8-0.4-5.5-7.8-5.3-14.8c0.2-7,1.4-12.7-1-16.4c-2.5-3.7-3.7-3.9-2.9-8.2s2.5-6,1-8.8
				c-1.4-2.9-5.3-7-5.3-13.8c0-6.8-1.4-7.4-3.7-8.5c-2.3-1.1-5.5-4.1-6-6.8c-0.4-2.7-10.8,1-14.9-1.9c-4.1-2.9-11.3-17.9-9.5-25.1
				C422,234.3,453.3,201.9,458.6,204.7z"/>
			<path id="XMLID_64_" class="st4" d="M669.5,141.4c0-3.4-4.8-8.1-12.3-6.3c-7.5,1.8-16.4,4.9-22,2.1c-5.6-2.9-4.7-5.6-8.4-5.8
				c-3.7-0.1-3.4,4.2-7,3.4c-3.6-0.8-5.3-2.3-11.9-2.9c-6.6-0.5-25.2,1.2-32.9,2.2c-7.7,1-19.6,17-25.7,18.6
				c-6.2,1.6-8.5,0.4-12.6,0.3c-4.1-0.1-8.5,2.5-12.9,2.2c-4.4-0.3-8.6-2.7-13.7-1.9c-5.1,0.8-19.9,21.8-24.1,20.4
				c-4.2-1.4,5.3-12.1,4.9-12.9c-0.4-0.8-4.5,3.3-9.6,2.7c-5.1-0.5-9.2-2.1-13.4,1.1c-4.2,3.2-10.5,11.1-12.5,11.5
				c-1.9,0.3-4.4-0.8-6.6,1.3c-2.2,2.1-3.3,5.3-2.5,5.3c0.8,0,4.5-4.7,7-3c2.3,1.5-4.1,5.1-1.8,6.2c2.3,1.1,7.3-5.6,9.6-8.6
				c2.3-3,8.9-7.5,13-2.6c4.1,4.9-5.3,14.2-7,15.7c-1.6,1.5-9.7,5.6-6.8,8.4c2.9,2.7,3-1.4,8.6-2.1c5.6-0.7,5.8,0,8.9-1.2
				c3.1-1.2,5.1-3.4,7.5-2.6c2.5,0.8,0.3,4.5,3.4,5.1c3.1,0.5,4.1-2.2,7.3-4.9c3.1-2.7,3.1-4.1,9.7-0.3c6.6,3.8,7.3,6.3,6.3,7.8
				c-1,1.5-6.8,2.7-11,2.2c-4.1-0.4-5.7-0.1-6.9,1.8s1.8,2.7,2.5,6.7c0.7,4-0.3,6.8,2.5,10.8c2.8,4,14.5,13.3,17.3,17.4
				c2.7,4.1,6,2.6,9.6,0.5c3.6-2.1,5.3-1.6,6.6-3.3c1.2-1.6,2.7-8.4,1.2-9.6c-1.5-1.2-3.7,1.4-7.8-3.1c-4.1-4.5-7.3-9-5.1-10.3
				c2.2-1.2,7.9,6.8,15.9,10.4c7.9,3.6,14.4,6.7,15.9,14.6c1.5,7.9-0.1,16.3,2.2,17.3c2.3,1,7-8.6,13-11.6c6-3,11.5-4.8,12.2,4.8
				c0.7,9.6,0,11.9,5.3,14.8c5.3,2.9,10.3,4.1,15.2,8.5c4.9,4.4,6.2,7.3,7.8,6.6c1.6-0.7-1.1-4.4,0-8.1c1.1-3.7,2.1-8.1,1.5-12.7
				c-0.5-4.7-8.5-11.5-7.5-16.3c1-4.8,8.6-7.4,15.6-11.9c7-4.5,9.3-7.7,9.2-13.4c-0.1-5.8-10.3-17-4.9-20.5
				c5.3-3.6,6.6,16.6,11.8,16.6c5.2,0-2.1-8.5,3-13c5.1-4.5,11.6-7.5,12.7-15.1c1.1-7.5-4.7-11.4-4-16c0.7-4.7,2.5-6.3,6.3-4.4
				c3.8,1.9,4.9,0.1,7.8-5.5c2.9-5.6,8.2-5.2,10.1-8.6C672.1,146.6,669.5,144.8,669.5,141.4z M528.1,201.8c-2.9,2.4-6.9-3.5-9-7
				c-2.2-3.5-4.9-6.5-7.1-8.2c-2.2-1.7-1.9-2.6-0.8-3.6c2.3-2,11.8-2,12.6,0c0.8,2-1.6,7.6,0.7,10.8
				C526.9,196.9,529.6,200.6,528.1,201.8z"/>
			<path id="XMLID_67_" class="st4" d="M614.4,286.3c1.6,2.3,13.3-2.9,14.4-4.9c1-2.1-1.3-4.3-0.8-6.2c0.5-1.8,1-4.7-1.4-6.2
				C622.8,266.9,610.5,280.6,614.4,286.3z"/>
			<path id="XMLID_68_" class="st4" d="M635,277.6c1.7,0.2,0.3,2.1,2.6,4.5c2.3,2.4,3.3,3.9,2.3,5.1c-1,1.1-5.1,0.5-6.4-1.6
				C632.1,283.4,632,277.3,635,277.6z"/>
			<path id="XMLID_69_" class="st4" d="M638.9,273.1c1.6-2.4,5.1-1.3,10.9,1c5.8,2.3,13.6,9.5,13.2,11.1c-0.3,1.5-4.2,1.5-5.9,2.3
				c-1.6,0.8-7.4,1.6-9.9-2.1c-2.4-3.7-1.7-6.2-4-7.8C641,276,637.6,275.1,638.9,273.1z"/>
			<path id="XMLID_70_" class="st4" d="M599.4,289.2c3.6-2.6,13.1,4.4,20.1,4.9c6.9,0.4,23.4,0.1,23.5,2.1c0.1,2-15.5,5.7-24.8,3.8
				C608.8,298,595.8,291.8,599.4,289.2z"/>
			<path id="XMLID_71_" class="st4" d="M610,318.9c7.7-10.6,17.6-4.9,26.5-8.8c8.9-3.9,13.2,8.4,20.6,8.8c7.4,0.4,7.2-5.8,6.1-10.7
				c-1.1-4.9,2.1-6,7.8,1.6c5.8,7.6,11.8,16.4,15.9,19.1c4.1,2.7,5.8,1.6,5.5,8.6c-0.2,7-0.2,22-6.8,22s-10.9-9.6-20.3-13.7
				c-9.4-4.1-27.1,9.6-35.1,7.6c-8-2.1-17.3-18.7-20.1-23.2C607.1,325.7,608,321.6,610,318.9z"/>
		</g>
		<line id="XMLID_72_" class="st5" x1="829.1" y1="497.2" x2="89.4" y2="497.2"/>
		<linearGradient id="XMLID_6820_" gradientUnits="userSpaceOnUse" x1="522.8707" y1="185.4438" x2="612.2776" y2="185.4438">
			<stop  offset="0" style="stop-color:#FFFFFF"/>
			<stop  offset="0.1227" style="stop-color:#DADADA"/>
			<stop  offset="0.4483" style="stop-color:#7E7E7E"/>
			<stop  offset="0.7128" style="stop-color:#3A3A3A"/>
			<stop  offset="0.9029" style="stop-color:#101010"/>
			<stop  offset="1" style="stop-color:#000000"/>
		</linearGradient>
		<path id="XMLID_73_" class="st6" d="M635.9,184.2l-8-0.7l4.3-8.4h-3.7l-6.9,6.5c0,0-14.1-1.1-29-2.1l8.8-38.6h-2.9
			c-2.3,0-4.5,1.2-5.6,3.3l-5.5,9.5h-8.5v5.5h5.3l-3.4,5.9h-6.5v5.5h3.2l-4.4,7.5c-6.9-0.4-12.3-0.6-14.1-0.6
			c-4.5,0.2-9,3.5-11.5,5.7c-1.3,1.1-1.3,3.1,0,4.2c2.6,2.2,7.1,5.5,11.5,5.7c1.8,0.1,7.3-0.2,14.1-0.6l4.4,7.5h-3.2v5.5h6.5
			l3.4,5.9h-5.3v5.5h8.5l5.5,9.5c1.2,2,3.3,3.3,5.6,3.3h2.9l-8.8-38.6c14.9-1,29-2.1,29-2.1l6.9,6.5h3.7l-4.3-8.4l8-0.7V184.2z"/>
		<linearGradient id="XMLID_6821_" gradientUnits="userSpaceOnUse" x1="353.8032" y1="100.9279" x2="458.2145" y2="100.9279">
			<stop  offset="0" style="stop-color:#48BD98"/>
			<stop  offset="0.1137" style="stop-color:#59BC94"/>
			<stop  offset="0.3015" style="stop-color:#7BBE8B"/>
			<stop  offset="0.5403" style="stop-color:#A7C37A"/>
			<stop  offset="0.8177" style="stop-color:#DBC85E"/>
			<stop  offset="1" style="stop-color:#FFCB44"/>
		</linearGradient>
		<circle id="XMLID_459_" class="st7" cx="406" cy="100.9" r="52.2"/>
		<g id="XMLID_74_">
			<rect id="XMLID_37_" x="575.5" y="150.6" class="st8" width="13.1" height="5.5"/>
			<rect id="XMLID_457_" x="571" y="162.1" class="st8" width="13.1" height="5.5"/>
			<linearGradient id="XMLID_6822_" gradientUnits="userSpaceOnUse" x1="582.7678" y1="156.1449" x2="582.7678" y2="185.2648">
				<stop  offset="0" style="stop-color:#FFFFFF"/>
				<stop  offset="0.1305" style="stop-color:#F5F5F5"/>
				<stop  offset="0.7049" style="stop-color:#CBCBCB"/>
				<stop  offset="1" style="stop-color:#BBBBBB"/>
			</linearGradient>
			<path id="XMLID_456_" class="st9" d="M588.7,179.3l9.4-41.5h-2.9c-2.3,0-4.5,1.2-5.6,3.3l-22.2,38.2H588.7z"/>
			<rect id="XMLID_35_" x="575.5" y="208.6" class="st8" width="13.1" height="5.5"/>
			<rect id="XMLID_34_" x="571" y="197.1" class="st8" width="13.1" height="5.5"/>
			<linearGradient id="XMLID_6823_" gradientUnits="userSpaceOnUse" x1="582.7678" y1="203.5494" x2="582.7678" y2="182.3484">
				<stop  offset="0" style="stop-color:#FFFFFF"/>
				<stop  offset="0.1305" style="stop-color:#F5F5F5"/>
				<stop  offset="0.7049" style="stop-color:#CBCBCB"/>
				<stop  offset="1" style="stop-color:#BBBBBB"/>
			</linearGradient>
			<path id="XMLID_453_" class="st10" d="M588.7,185.4l9.4,41.5h-2.9c-2.3,0-4.5-1.2-5.6-3.3l-22.2-38.2H588.7z"/>
			<path id="XMLID_452_" class="st11" d="M544.2,180.3c2.6-2.2,7.1-5.5,11.5-5.7c6.9-0.3,62.7,3.9,62.7,3.9l6.9-6.5h3.7l-4.3,8.4
				l8,0.7v2.6l-8,0.7l4.3,8.4h-3.7l-6.9-6.5c0,0-55.8,4.2-62.7,3.9c-4.5-0.2-9-3.5-11.5-5.7C542.9,183.4,542.9,181.4,544.2,180.3z"
				/>
		</g>
		<path id="XMLID_450_" class="st12" d="M635.3,182.4c24.5,0,95.7,13.2,95.7,77.1s-61.6,73.9-105.7,59.2
			C581.2,304,483.6,243,415.5,228.2c-68.1-14.8-114.2,3.1-110,48.2c2,21.8,30,55.2,77.6,56.1"/>
		<g id="XMLID_75_">
			<ellipse id="XMLID_449_" class="st11" cx="653.2" cy="325.1" rx="20" ry="7.6"/>
			<path id="XMLID_76_" class="st13" d="M653.2,239.5c-13.8,0-27.5,10.3-27.5,25.8c0,15,4.7,35.5,25.2,56.8c1.2,1.3,3.3,1.3,4.5,0
				c20.5-21.4,25.2-41.8,25.2-56.8C680.7,249.7,667,239.5,653.2,239.5z M653.2,278c-6.1,0-11.1-4.9-11.1-11.1
				c0-6.1,4.9-11.1,11.1-11.1c6.1,0,11.1,4.9,11.1,11.1C664.3,273,659.3,278,653.2,278z"/>
			<linearGradient id="XMLID_6824_" gradientUnits="userSpaceOnUse" x1="622.9387" y1="281.2643" x2="662.0255" y2="281.2643">
				<stop  offset="0" style="stop-color:#FFFFFF"/>
				<stop  offset="0.1227" style="stop-color:#DADADA"/>
				<stop  offset="0.4483" style="stop-color:#7E7E7E"/>
				<stop  offset="0.7128" style="stop-color:#3A3A3A"/>
				<stop  offset="0.9029" style="stop-color:#101010"/>
				<stop  offset="1" style="stop-color:#000000"/>
			</linearGradient>
			<path id="XMLID_79_" class="st14" d="M642.1,266.9c0-6.1,4.9-11.1,11.1-11.1v-16.4c-13.8,0-27.5,10.3-27.5,25.8
				c0,15,4.7,35.5,25.2,56.8c0.6,0.6,1.4,1,2.2,1V278C647.1,278,642.1,273,642.1,266.9z"/>
		</g>
		<g id="XMLID_80_">
			<linearGradient id="XMLID_6825_" gradientUnits="userSpaceOnUse" x1="495.1418" y1="239.7209" x2="495.1418" y2="310.9954">
				<stop  offset="0" style="stop-color:#FFFFFF"/>
				<stop  offset="0.1227" style="stop-color:#DADADA"/>
				<stop  offset="0.4483" style="stop-color:#7E7E7E"/>
				<stop  offset="0.7128" style="stop-color:#3A3A3A"/>
				<stop  offset="0.9029" style="stop-color:#101010"/>
				<stop  offset="1" style="stop-color:#000000"/>
			</linearGradient>
			<path id="XMLID_443_" class="st15" d="M515.3,284.5c15.5-10.2,19-31.7,6.8-46.4c-9.4-11.3-25.9-14.5-38.8-7.6
				c-13.8,7.4-19.6,23.2-15.2,37.1c0.4,1.3,0.3,2.6-0.5,3.8l-6.5,10c-0.6,0.9,0.2,2,1.2,1.8l11.8-2.1c1.3-0.2,2.6,0.2,3.6,1.1
				C488,291,503.3,292.4,515.3,284.5z"/>
			<path id="XMLID_442_" class="st11" d="M513.9,280.3c15.1-9.9,18.5-30.9,6.6-45.2c-9.1-11-25.2-14.1-37.8-7.4
				c-13.4,7.2-19.1,22.6-14.8,36.1c0.4,1.2,0.3,2.6-0.4,3.7l-6.4,9.7c-0.5,0.8,0.2,1.9,1.1,1.7l11.5-2c1.3-0.2,2.6,0.2,3.5,1
				C487.3,286.6,502.2,287.9,513.9,280.3z"/>
			<g id="XMLID_81_">
				<path id="XMLID_82_" class="st16" d="M502.2,266.6h-23.5c-1.4,0-2.5-1.3-2.2-2.6l3.1-19h28.1l-3.2,19.7
					C504.2,265.8,503.3,266.6,502.2,266.6z"/>
				<polygon id="XMLID_83_" class="st16" points="506.7,250.8 478.6,250.8 479.6,245 507.6,245 				"/>
				<g id="XMLID_84_">
					<g id="XMLID_85_">
						<path id="XMLID_86_" class="st16" d="M520,250.3h-8.4c-0.9,0-1.6-0.7-1.6-1.6c0-0.9,0.7-1.6,1.6-1.6h8.4
							c0.9,0,1.6,0.7,1.6,1.6C521.6,249.6,520.9,250.3,520,250.3z"/>
					</g>
					<g id="XMLID_87_">
						<path id="XMLID_88_" class="st16" d="M518.8,257.4h-8.4c-0.9,0-1.6-0.7-1.6-1.6c0-0.9,0.7-1.6,1.6-1.6h8.4
							c0.9,0,1.6,0.7,1.6,1.6C520.4,256.7,519.7,257.4,518.8,257.4z"/>
					</g>
					<g id="XMLID_89_">
						<path id="XMLID_90_" class="st16" d="M517.6,264.6h-8.4c-0.9,0-1.6-0.7-1.6-1.6s0.7-1.6,1.6-1.6h8.4c0.9,0,1.6,0.7,1.6,1.6
							S518.5,264.6,517.6,264.6z"/>
					</g>
				</g>
				<polygon id="XMLID_91_" class="st13" points="493.3,266.6 486.9,266.6 490.4,245 496.8,245 				"/>
				<polygon id="XMLID_92_" class="st17" points="506.5,252.3 478.4,252.3 478.7,250.8 506.8,250.8 				"/>
			</g>
		</g>
		<g id="XMLID_93_">
			<polygon id="XMLID_94_" class="st18" points="58.8,477 70.6,484.2 448.2,484.2 456.9,477 			"/>
			<ellipse id="XMLID_427_" class="st18" cx="357.2" cy="473.7" rx="22.4" ry="28"/>
			<ellipse id="XMLID_426_" class="st18" cx="228.4" cy="473.7" rx="22.4" ry="28"/>
			<rect id="XMLID_32_" x="137.8" y="342.6" class="st13" width="323.9" height="138"/>
			<rect id="XMLID_31_" x="137.8" y="342.6" class="st17" width="79.6" height="138"/>
			<rect id="XMLID_28_" x="194.5" y="464.9" class="st17" width="22.9" height="15.7"/>
			<ellipse id="XMLID_422_" class="st18" cx="106.4" cy="473.7" rx="22.4" ry="28"/>
			<polygon id="XMLID_95_" class="st16" points="206,365.7 206,480.6 108.9,480.6 118.9,432 164.3,417.3 175.5,365.7 			"/>
			<line id="XMLID_96_" class="st19" x1="164.3" y1="420.6" x2="164.3" y2="451.6"/>
			<polygon id="XMLID_97_" class="st4" points="108.9,480.6 51.6,480.6 61.6,432 119,432 			"/>
			<polygon id="XMLID_98_" class="st16" points="116.2,445.6 58.8,445.6 61.6,432 119,432 			"/>
			<polygon id="XMLID_99_" class="st11" points="74.4,445.6 58.8,445.6 61.6,432 77.3,432 			"/>
			<polygon id="XMLID_100_" class="st11" points="116.2,445.6 100.5,445.6 103.3,432 119,432 			"/>
			<g id="XMLID_101_">
				<line id="XMLID_102_" class="st20" x1="76.7" y1="434.7" x2="102.8" y2="434.7"/>
				<line id="XMLID_103_" class="st20" x1="76.1" y1="437.4" x2="102.2" y2="437.4"/>
				<line id="XMLID_104_" class="st20" x1="75.6" y1="440.2" x2="101.7" y2="440.2"/>
				<line id="XMLID_105_" class="st20" x1="75" y1="442.9" x2="101.1" y2="442.9"/>
			</g>
			<polygon id="XMLID_106_" class="st21" points="50.9,464.9 206,464.9 206,480.6 47.7,480.6 			"/>
			<ellipse id="XMLID_409_" class="st18" cx="163.3" cy="473.7" rx="22.4" ry="28"/>
			<polygon id="XMLID_107_" class="st22" points="50.9,464.9 108.2,464.9 105,480.6 47.7,480.6 			"/>
			<polygon id="XMLID_108_" class="st23" points="107,417.3 164.3,417.3 119,432 61.6,432 			"/>
			<polygon id="XMLID_109_" class="st24" points="170.9,412 179.7,371 200.7,371 200.7,412 			"/>
			<path id="XMLID_110_" class="st25" d="M163.3,487.6c-4,0-8.4-6-8.4-14c0-8,4.4-14,8.4-14c3.9,0,8.4,6,8.4,14
				C171.7,481.7,167.3,487.6,163.3,487.6z"/>
			<polygon id="XMLID_111_" class="st4" points="164.3,417.3 107.3,417.3 118.1,365.7 175.2,365.7 			"/>
			<polygon id="XMLID_112_" class="st26" points="108.4,412 165.4,412 174.1,371 117,371 			"/>
			<rect id="XMLID_402_" x="97" y="391.1" class="st11" width="9.3" height="23.4"/>
			<path id="XMLID_113_" class="st20" d="M101.7,393.9v-4.3c0-1.6,1.3-2.9,2.9-2.9h9.8"/>
			<rect id="XMLID_400_" x="178.7" y="391.1" class="st11" width="9.3" height="23.4"/>
			<path id="XMLID_399_" class="st20" d="M183.6,393.9v-4.3c0-1.6-1.3-2.9-2.9-2.9h-4.4"/>
			<rect id="XMLID_398_" x="217.4" y="464.9" class="st17" width="244.3" height="15.7"/>
			<g id="XMLID_114_" class="st27">
				<path id="XMLID_115_" class="st28" d="M407.3,445.6c-12.4,0-22.4,12.6-22.4,28c0,2.4,0.3,4.7,0.7,6.9H429
					c0.5-2.2,0.7-4.5,0.7-6.9C429.7,458.2,419.7,445.6,407.3,445.6z"/>
				<path id="XMLID_116_" class="st28" d="M300.9,473.7c0-15.5-10-28-22.4-28c-12.4,0-22.4,12.6-22.4,28c0,2.4,0.3,4.7,0.7,6.9h43.4
					C300.6,478.4,300.9,476.1,300.9,473.7z"/>
			</g>
			<line id="XMLID_117_" class="st29" x1="137.8" y1="358" x2="461.7" y2="358"/>
			<g id="XMLID_118_">
				<path id="XMLID_393_" class="st30" d="M244.6,458.7L244.6,458.7c-1.8,0-3.3-1.5-3.3-3.3v-87.8c0-1.8,1.5-3.3,3.3-3.3l0,0
					c1.8,0,3.3,1.5,3.3,3.3v87.8C247.9,457.2,246.4,458.7,244.6,458.7z"/>
				<path id="XMLID_392_" class="st30" d="M276.2,458.7L276.2,458.7c-1.8,0-3.3-1.5-3.3-3.3v-87.8c0-1.8,1.5-3.3,3.3-3.3l0,0
					c1.8,0,3.3,1.5,3.3,3.3v87.8C279.5,457.2,278.1,458.7,276.2,458.7z"/>
				<path id="XMLID_391_" class="st30" d="M307.9,458.7L307.9,458.7c-1.8,0-3.3-1.5-3.3-3.3v-87.8c0-1.8,1.5-3.3,3.3-3.3l0,0
					c1.8,0,3.3,1.5,3.3,3.3v87.8C311.2,457.2,309.7,458.7,307.9,458.7z"/>
				<path id="XMLID_390_" class="st30" d="M339.5,458.7L339.5,458.7c-1.8,0-3.3-1.5-3.3-3.3v-87.8c0-1.8,1.5-3.3,3.3-3.3l0,0
					c1.8,0,3.3,1.5,3.3,3.3v87.8C342.8,457.2,341.4,458.7,339.5,458.7z"/>
				<path id="XMLID_389_" class="st30" d="M371.2,458.7L371.2,458.7c-1.8,0-3.3-1.5-3.3-3.3v-87.8c0-1.8,1.5-3.3,3.3-3.3l0,0
					c1.8,0,3.3,1.5,3.3,3.3v87.8C374.5,457.2,373,458.7,371.2,458.7z"/>
				<path id="XMLID_388_" class="st30" d="M402.8,458.7L402.8,458.7c-1.8,0-3.3-1.5-3.3-3.3v-87.8c0-1.8,1.5-3.3,3.3-3.3l0,0
					c1.8,0,3.3,1.5,3.3,3.3v87.8C406.1,457.2,404.7,458.7,402.8,458.7z"/>
				<path id="XMLID_387_" class="st30" d="M434.5,458.7L434.5,458.7c-1.8,0-3.3-1.5-3.3-3.3v-87.8c0-1.8,1.5-3.3,3.3-3.3l0,0
					c1.8,0,3.3,1.5,3.3,3.3v87.8C437.8,457.2,436.3,458.7,434.5,458.7z"/>
			</g>
			<ellipse id="XMLID_385_" class="st18" cx="285.3" cy="473.7" rx="22.4" ry="28"/>
			<path id="XMLID_119_" class="st25" d="M285.3,487.6c-4,0-8.4-6-8.4-14c0-8,4.4-14,8.4-14c3.9,0,8.4,6,8.4,14
				C293.7,481.7,289.3,487.6,285.3,487.6z"/>
			<ellipse id="XMLID_383_" class="st18" cx="414.2" cy="473.7" rx="22.4" ry="28"/>
			<path id="XMLID_120_" class="st25" d="M414.2,487.6c-4,0-8.4-6-8.4-14c0-8,4.4-14,8.4-14c3.9,0,8.4,6,8.4,14
				C422.5,481.7,418.1,487.6,414.2,487.6z"/>
			<line id="XMLID_121_" class="st19" x1="125.3" y1="432.9" x2="164.3" y2="432.9"/>
			<line id="XMLID_122_" class="st19" x1="169" y1="432.9" x2="200.7" y2="432.9"/>
		</g>
		<g id="XMLID_123_">
			<g id="XMLID_124_">
				<rect id="XMLID_26_" x="675.2" y="446.9" class="st16" width="76.3" height="52.9"/>
				<rect id="XMLID_25_" x="720.6" y="446.9" class="st13" width="12.1" height="52.9"/>
				<linearGradient id="XMLID_6826_" gradientUnits="userSpaceOnUse" x1="683.1533" y1="473.3391" x2="725.472" y2="473.3391">
					<stop  offset="0" style="stop-color:#FFFFFF"/>
					<stop  offset="0.1016" style="stop-color:#D0D0D0"/>
					<stop  offset="0.234" style="stop-color:#999999"/>
					<stop  offset="0.3677" style="stop-color:#6A6A6A"/>
					<stop  offset="0.5" style="stop-color:#444444"/>
					<stop  offset="0.6303" style="stop-color:#262626"/>
					<stop  offset="0.7582" style="stop-color:#111111"/>
					<stop  offset="0.8827" style="stop-color:#040404"/>
					<stop  offset="1" style="stop-color:#000000"/>
				</linearGradient>
				<rect id="XMLID_24_" x="675.2" y="446.9" class="st31" width="26.8" height="52.9"/>
				<linearGradient id="XMLID_6827_" gradientUnits="userSpaceOnUse" x1="713.3256" y1="472.4167" x2="713.3256" y2="456.4599">
					<stop  offset="0" style="stop-color:#FFFFFF"/>
					<stop  offset="0.1016" style="stop-color:#D0D0D0"/>
					<stop  offset="0.234" style="stop-color:#999999"/>
					<stop  offset="0.3677" style="stop-color:#6A6A6A"/>
					<stop  offset="0.5" style="stop-color:#444444"/>
					<stop  offset="0.6303" style="stop-color:#262626"/>
					<stop  offset="0.7582" style="stop-color:#111111"/>
					<stop  offset="0.8827" style="stop-color:#040404"/>
					<stop  offset="1" style="stop-color:#000000"/>
				</linearGradient>
				<rect id="XMLID_375_" x="675.2" y="464.8" class="st32" width="76.3" height="5.5"/>
			</g>
			<g id="XMLID_125_">
				<rect id="XMLID_373_" x="637" y="394.1" class="st11" width="76.3" height="52.9"/>
				<rect id="XMLID_372_" x="682.5" y="394.1" class="st16" width="12.1" height="52.9"/>
				<linearGradient id="XMLID_6828_" gradientUnits="userSpaceOnUse" x1="641.8896" y1="420.4862" x2="668.6636" y2="420.4862">
					<stop  offset="0" style="stop-color:#FFFFFF"/>
					<stop  offset="0.1016" style="stop-color:#D0D0D0"/>
					<stop  offset="0.234" style="stop-color:#999999"/>
					<stop  offset="0.3677" style="stop-color:#6A6A6A"/>
					<stop  offset="0.5" style="stop-color:#444444"/>
					<stop  offset="0.6303" style="stop-color:#262626"/>
					<stop  offset="0.7582" style="stop-color:#111111"/>
					<stop  offset="0.8827" style="stop-color:#040404"/>
					<stop  offset="1" style="stop-color:#000000"/>
				</linearGradient>
				<rect id="XMLID_371_" x="637" y="394.1" class="st33" width="26.8" height="52.9"/>
				<linearGradient id="XMLID_6829_" gradientUnits="userSpaceOnUse" x1="675.1752" y1="422.0681" x2="675.1752" y2="396.6483">
					<stop  offset="0" style="stop-color:#FFFFFF"/>
					<stop  offset="0.1016" style="stop-color:#D0D0D0"/>
					<stop  offset="0.234" style="stop-color:#999999"/>
					<stop  offset="0.3677" style="stop-color:#6A6A6A"/>
					<stop  offset="0.5" style="stop-color:#444444"/>
					<stop  offset="0.6303" style="stop-color:#262626"/>
					<stop  offset="0.7582" style="stop-color:#111111"/>
					<stop  offset="0.8827" style="stop-color:#040404"/>
					<stop  offset="1" style="stop-color:#000000"/>
				</linearGradient>
				<rect id="XMLID_23_" x="637" y="394.1" class="st34" width="76.3" height="17.9"/>
				<path id="XMLID_126_" class="st11" d="M717.7,407.1h-45.1c-1.4,0-2.6-0.8-3.3-2l-5.6-11.1h49.5l5.6,11.1
					C719.4,406,718.8,407.1,717.7,407.1z"/>
				<path id="XMLID_368_" class="st11" d="M632.4,407.1h23.3c0.9,0,1.7-0.5,2.1-1.3l6-11.8H637l-5.7,11.3
					C630.9,406.2,631.5,407.1,632.4,407.1z"/>
			</g>
			<g id="XMLID_127_">
				<rect id="XMLID_22_" x="618.3" y="446.9" class="st16" width="76.3" height="52.9"/>
				<rect id="XMLID_21_" x="663.8" y="446.9" class="st13" width="12.1" height="52.9"/>
				<linearGradient id="XMLID_6830_" gradientUnits="userSpaceOnUse" x1="626.3109" y1="473.3391" x2="668.6296" y2="473.3391">
					<stop  offset="0" style="stop-color:#FFFFFF"/>
					<stop  offset="0.1016" style="stop-color:#D0D0D0"/>
					<stop  offset="0.234" style="stop-color:#999999"/>
					<stop  offset="0.3677" style="stop-color:#6A6A6A"/>
					<stop  offset="0.5" style="stop-color:#444444"/>
					<stop  offset="0.6303" style="stop-color:#262626"/>
					<stop  offset="0.7582" style="stop-color:#111111"/>
					<stop  offset="0.8827" style="stop-color:#040404"/>
					<stop  offset="1" style="stop-color:#000000"/>
				</linearGradient>
				<rect id="XMLID_20_" x="618.3" y="446.9" class="st35" width="26.8" height="52.9"/>
				<linearGradient id="XMLID_6831_" gradientUnits="userSpaceOnUse" x1="656.4832" y1="472.4167" x2="656.4832" y2="456.4599">
					<stop  offset="0" style="stop-color:#FFFFFF"/>
					<stop  offset="0.1016" style="stop-color:#D0D0D0"/>
					<stop  offset="0.234" style="stop-color:#999999"/>
					<stop  offset="0.3677" style="stop-color:#6A6A6A"/>
					<stop  offset="0.5" style="stop-color:#444444"/>
					<stop  offset="0.6303" style="stop-color:#262626"/>
					<stop  offset="0.7582" style="stop-color:#111111"/>
					<stop  offset="0.8827" style="stop-color:#040404"/>
					<stop  offset="1" style="stop-color:#000000"/>
				</linearGradient>
				<rect id="XMLID_363_" x="618.3" y="464.8" class="st36" width="76.3" height="5.5"/>
			</g>
			<g id="XMLID_128_">
				<polygon id="XMLID_129_" class="st37" points="606.3,384.1 574.3,377.7 574.3,370.1 606.3,376.6 				"/>
				<linearGradient id="XMLID_6832_" gradientUnits="userSpaceOnUse" x1="590.4006" y1="379.3073" x2="623.5605" y2="379.3073">
					<stop  offset="0" style="stop-color:#FFFFFF"/>
					<stop  offset="0.1016" style="stop-color:#D0D0D0"/>
					<stop  offset="0.234" style="stop-color:#999999"/>
					<stop  offset="0.3677" style="stop-color:#6A6A6A"/>
					<stop  offset="0.5" style="stop-color:#444444"/>
					<stop  offset="0.6303" style="stop-color:#262626"/>
					<stop  offset="0.7582" style="stop-color:#111111"/>
					<stop  offset="0.8827" style="stop-color:#040404"/>
					<stop  offset="1" style="stop-color:#000000"/>
				</linearGradient>
				<polygon id="XMLID_130_" class="st38" points="596,382.1 606.3,384.1 606.3,376.6 596,374.5 				"/>
				<g id="XMLID_131_">
					<circle id="XMLID_359_" class="st18" cx="610.2" cy="510.5" r="6.5"/>
					<g id="XMLID_132_">
						<path id="XMLID_133_" class="st18" d="M619.8,510.5h-6.2c0-1.9-1.6-3.5-3.5-3.5s-3.5,1.6-3.5,3.5h-6.2c0-5.3,4.3-9.6,9.6-9.6
							S619.8,505.2,619.8,510.5z"/>
					</g>
				</g>
				<g id="XMLID_134_">
					<circle id="XMLID_355_" class="st18" cx="716" cy="510.5" r="6.5"/>
					<g id="XMLID_135_">
						<path id="XMLID_136_" class="st18" d="M725.7,510.5h-6.2c0-1.9-1.6-3.5-3.5-3.5c-1.9,0-3.5,1.6-3.5,3.5h-6.2
							c0-5.3,4.3-9.6,9.6-9.6C721.3,500.9,725.7,505.2,725.7,510.5z"/>
					</g>
				</g>
				<path id="XMLID_351_" class="st37" d="M752,507.2H596c-2.1,0-3.7-1.7-3.7-3.7l0,0c0-2.1,1.7-3.7,3.7-3.7h156
					c2.1,0,3.7,1.7,3.7,3.7l0,0C755.7,505.6,754.1,507.2,752,507.2z"/>
				<g id="XMLID_137_">
					<circle id="XMLID_350_" class="st11" cx="631.9" cy="510.5" r="6.5"/>
					<g id="XMLID_138_">
						<path id="XMLID_139_" class="st18" d="M641.5,510.5h-6.2c0-1.9-1.6-3.5-3.5-3.5c-1.9,0-3.5,1.6-3.5,3.5h-6.2
							c0-5.3,4.3-9.6,9.6-9.6C637.2,500.9,641.5,505.2,641.5,510.5z"/>
					</g>
				</g>
				<g id="XMLID_140_">
					<circle id="XMLID_318_" class="st11" cx="737.8" cy="510.5" r="6.5"/>
					<g id="XMLID_141_">
						<path id="XMLID_142_" class="st18" d="M747.4,510.5h-6.2c0-1.9-1.6-3.5-3.5-3.5c-1.9,0-3.5,1.6-3.5,3.5h-6.2
							c0-5.3,4.3-9.6,9.6-9.6C743.1,500.9,747.4,505.2,747.4,510.5z"/>
					</g>
				</g>
				<path id="XMLID_143_" class="st37" d="M609.3,499.8V367.2c0-2.1-1.7-3.7-3.7-3.7c-2.1,0-3.7,1.7-3.7,3.7v132.6H609.3z"/>
				<path id="XMLID_144_" class="st8" d="M539.5,362.2c-2.7-0.6-4.9-3.5-4.9-6.5l0,0c0-1.2-0.9-2.3-1.9-2.5
					c-1.1-0.2-1.9,0.6-1.9,1.8v10.8c0,2.3,1.7,4.5,3.7,4.9l46.1,9.3v-9.5L539.5,362.2z"/>
				<linearGradient id="XMLID_6833_" gradientUnits="userSpaceOnUse" x1="605.5435" y1="466.19" x2="605.5435" y2="501.0662">
					<stop  offset="0" style="stop-color:#FFFFFF"/>
					<stop  offset="0.1016" style="stop-color:#D0D0D0"/>
					<stop  offset="0.234" style="stop-color:#999999"/>
					<stop  offset="0.3677" style="stop-color:#6A6A6A"/>
					<stop  offset="0.5" style="stop-color:#444444"/>
					<stop  offset="0.6303" style="stop-color:#262626"/>
					<stop  offset="0.7582" style="stop-color:#111111"/>
					<stop  offset="0.8827" style="stop-color:#040404"/>
					<stop  offset="1" style="stop-color:#000000"/>
				</linearGradient>
				<polygon id="XMLID_145_" class="st39" points="601.8,480 601.8,499.8 609.3,499.8 609.3,470.3 				"/>
			</g>
			<line id="XMLID_146_" class="st40" x1="618.3" y1="446.9" x2="751.3" y2="446.9"/>
			<line id="XMLID_147_" class="st40" x1="694.6" y1="446.9" x2="694.6" y2="493.7"/>
		</g>
		<g id="XMLID_148_">
			<path id="XMLID_149_" class="st41" d="M536.4,503.2l1.8,25.9c0.1,1.3-0.4,2.6-1.3,3.5l-3.8,3.8c-1.2,1.2-2.8,2.1-4.5,2.4
				c-3.4,0.7-9.2,2.2-9.3,5.5h30.5c1.8,0,3.1-1.8,2.4-3.5l-4.1-10.3l0.7-27.2H536.4z"/>
			<path id="XMLID_150_" class="st41" d="M577,503.2l5.8,25.2c0.4,1.7-0.1,3.4-1.3,4.7l-3.3,3.3c-1.2,1.2-2.8,2.1-4.5,2.4
				c-3.4,0.7-9.2,2.2-9.3,5.5h30.5c1.8,0,3.1-1.8,2.4-3.5l-4.1-10.3l-3.8-27.2H577z"/>
			<path id="XMLID_151_" class="st8" d="M545,376.1c0,0-15.6,66.7-12.1,129.6h19.7c0,0,0.2-21.3-1.6-39.5c0,0,10.7-47.7,13.2-56.5
				c2.5-8.8,8.7-19.8,6.1-33.6H545z"/>
			<linearGradient id="XMLID_6834_" gradientUnits="userSpaceOnUse" x1="526.8831" y1="507.0475" x2="578.03" y2="423.778">
				<stop  offset="0" style="stop-color:#FFFFFF"/>
				<stop  offset="0.1227" style="stop-color:#DADADA"/>
				<stop  offset="0.4483" style="stop-color:#7E7E7E"/>
				<stop  offset="0.7128" style="stop-color:#3A3A3A"/>
				<stop  offset="0.9029" style="stop-color:#101010"/>
				<stop  offset="1" style="stop-color:#000000"/>
			</linearGradient>
			<path id="XMLID_152_" class="st42" d="M567.2,401L567.2,401l-34.1,61.9c-0.8,13.9-1,28.5-0.2,42.9h19.7c0,0,0.2-21.3-1.6-39.5
				c0,0,10.7-47.7,13.2-56.5C564.9,407.1,566.1,404.1,567.2,401z"/>
			<path id="XMLID_153_" class="st8" d="M557.2,376.1c0,0-0.7,68.2,16.7,132.5h19.7c0,0-4.5-21.8-10.4-40.3c0,0,0-48.8,0.6-57.8
				c0.5-9,4.3-20.3-1.4-34.4H557.2z"/>
			<path id="XMLID_154_" class="st43" d="M578.4,376.1c0,0,2.7,20.2,1.4,29.5c-1.2,9.2-3.1,62-3.1,62s9,29,11.5,41"/>
			<path id="XMLID_155_" class="st43" d="M568,376.1c0,0-2.2,15.4,12.1,18.8"/>
			<path id="XMLID_156_" class="st18" d="M597.2,540.7l-2.5-6.3c-6.1,3.2-11.3,0.9-13.9-0.8l-2.7,2.7c-1.2,1.2-2.8,2.1-4.5,2.4
				c-3.4,0.7-9.2,2.2-9.3,5.5h30.5C596.6,544.2,597.9,542.4,597.2,540.7z"/>
			<path id="XMLID_157_" class="st18" d="M552.1,540.7l-2.2-5.7c-6.9,2-11.9,0.3-14.4-1.1l-2.4,2.4c-1.2,1.2-2.8,2.1-4.5,2.4
				c-3.4,0.7-9.2,2.2-9.3,5.5h30.5C551.5,544.2,552.8,542.4,552.1,540.7z"/>
			<linearGradient id="XMLID_6835_" gradientUnits="userSpaceOnUse" x1="563.3943" y1="410.4238" x2="563.3943" y2="376.7412">
				<stop  offset="0" style="stop-color:#FFFFFF"/>
				<stop  offset="0.1227" style="stop-color:#DADADA"/>
				<stop  offset="0.4483" style="stop-color:#7E7E7E"/>
				<stop  offset="0.7128" style="stop-color:#3A3A3A"/>
				<stop  offset="0.9029" style="stop-color:#101010"/>
				<stop  offset="1" style="stop-color:#000000"/>
			</linearGradient>
			<path id="XMLID_158_" class="st44" d="M582.5,376.1h-12.2h-13H545c0,0-1.4,5.9-3.2,15.9c15.3,4.8,34.2-2.6,43.3-6.9
				C584.6,382.3,583.8,379.3,582.5,376.1z"/>
			<path id="XMLID_159_" class="st43" d="M557.3,384.9c0,0,0.8,25.7,2.3,39.9"/>
			<polygon id="XMLID_160_" class="st41" points="556.9,316.5 538,335.2 546.2,344.5 562,325.5 			"/>
			<path id="XMLID_161_" class="st18" d="M548.4,273.6c-2.4,2.6-5.3,7.7,0,13.8c5.3,6.2,0.8,14.1-0.8,16.7c-1.6,2.7-4.4,9.7,2.3,9.7
				c6.7,0,19.8,0,19.8,0s6.4-19.1,0.8-28.6C565,275.7,548.4,273.6,548.4,273.6z"/>
			<path id="XMLID_162_" class="st41" d="M550.2,280.5c0,0-0.6,7.7-4,8.8c0.5,1.4,2.5,1.6,2.5,1.6s0.5,6.8,2.1,8.7
				c1.6,1.8,6.9,0.7,8.6,2.3c1.7,1.6,1.6,8.5,1.6,8.5s5.4,1.8,10.2,0C571.3,297.3,571.8,280.5,550.2,280.5z"/>
			<linearGradient id="XMLID_6836_" gradientUnits="userSpaceOnUse" x1="561.6431" y1="308.9619" x2="561.6431" y2="294.7641">
				<stop  offset="0" style="stop-color:#FFFFFF"/>
				<stop  offset="0.1227" style="stop-color:#DADADA"/>
				<stop  offset="0.4483" style="stop-color:#7E7E7E"/>
				<stop  offset="0.7128" style="stop-color:#3A3A3A"/>
				<stop  offset="0.9029" style="stop-color:#101010"/>
				<stop  offset="1" style="stop-color:#000000"/>
			</linearGradient>
			<path id="XMLID_163_" class="st45" d="M569.3,291.7c-0.1,0.1-0.2,0.2-0.3,0.3c-4.2,5.9-13.4,8.8-16.8,8.4
				c2.2,0.7,5.9,0.2,7.3,1.5c0.6,0.6,1,1.8,1.2,3.2l10.4-3.9C570.9,297.9,570.4,294.6,569.3,291.7z"/>
			<path id="XMLID_164_" class="st13" d="M561.1,310.4c0,0-10.8,14.3-11.7,23.1c-1,9.7,2.6,14.5-6.4,44.6c0,0,15.9,6.8,43,0
				c-2.7-9.6-3.2-16.8-0.9-27.9c2.4-11.1,3.1-29.6-4.1-39.8H561.1z"/>
			<linearGradient id="XMLID_6837_" gradientUnits="userSpaceOnUse" x1="587.0447" y1="389.6537" x2="529.8542" y2="346.1498">
				<stop  offset="0" style="stop-color:#FFFFFF"/>
				<stop  offset="0.1016" style="stop-color:#D0D0D0"/>
				<stop  offset="0.234" style="stop-color:#999999"/>
				<stop  offset="0.3677" style="stop-color:#6A6A6A"/>
				<stop  offset="0.5" style="stop-color:#444444"/>
				<stop  offset="0.6303" style="stop-color:#262626"/>
				<stop  offset="0.7582" style="stop-color:#111111"/>
				<stop  offset="0.8827" style="stop-color:#040404"/>
				<stop  offset="1" style="stop-color:#000000"/>
			</linearGradient>
			<path id="XMLID_165_" class="st46" d="M585.9,378.1c-5-16.8-36.7-31.7-36.7-39.2l0,0c0.1,7.2,1,15-6.3,39.2
				C543,378.1,558.8,384.9,585.9,378.1z"/>
			<rect id="XMLID_18_" x="486.8" y="331.5" class="st11" width="61" height="42.9"/>
			<linearGradient id="XMLID_6838_" gradientUnits="userSpaceOnUse" x1="486.7943" y1="352.9232" x2="505.1895" y2="352.9232">
				<stop  offset="0" style="stop-color:#FFFFFF"/>
				<stop  offset="0.1227" style="stop-color:#DADADA"/>
				<stop  offset="0.4483" style="stop-color:#7E7E7E"/>
				<stop  offset="0.7128" style="stop-color:#3A3A3A"/>
				<stop  offset="0.9029" style="stop-color:#101010"/>
				<stop  offset="1" style="stop-color:#000000"/>
			</linearGradient>
			<rect id="XMLID_17_" x="486.8" y="331.5" class="st47" width="18.4" height="42.9"/>
			<rect id="XMLID_288_" x="522.2" y="331.5" class="st16" width="8.6" height="42.9"/>
			<linearGradient id="XMLID_6839_" gradientUnits="userSpaceOnUse" x1="529.0168" y1="357.743" x2="526.5219" y2="371.5692">
				<stop  offset="0" style="stop-color:#FFFFFF"/>
				<stop  offset="0.1227" style="stop-color:#DADADA"/>
				<stop  offset="0.4483" style="stop-color:#7E7E7E"/>
				<stop  offset="0.7128" style="stop-color:#3A3A3A"/>
				<stop  offset="0.9029" style="stop-color:#101010"/>
				<stop  offset="1" style="stop-color:#000000"/>
			</linearGradient>
			<polygon id="XMLID_166_" class="st48" points="504.2,374.4 547.8,345.8 547.8,374.4 			"/>
			<path id="XMLID_167_" class="st18" d="M548.4,273.6c0,0,0.1,3,1.8,7c1.7,4,10.7,7,13.7,10.8c3.3,4.1,3,9.9,3.2,14.5
				s-0.4,7.2,4.7,7.8c5.1,0.6,9,0,12.4,0c3.4,0,4.1-3.7,1.7-8.9c-2.4-5.2-4.3-11.5-4.4-18.1c-0.2-10.3-4.9-19.3-15.4-19.3
				C551.9,267.3,548.4,273.6,548.4,273.6z"/>
			<path id="XMLID_168_" class="st41" d="M522.8,379.5c16.6-1.9,29.3-4.9,37.2-7.2c5.9-1.7,10.5-6.1,12.5-11.8l12.1-34.2
				c1.5-4.3-0.8-9-5.2-10.4l0,0c-3.2-1-6.7,0.7-7.8,3.9l-14.4,41.5l-36.7,12.6c0,0-8.7-3.8-9.8-3.5c-1.1,0.3,3.1,4.1,3.1,4.1h-9.7
				C504.2,374.4,507.4,384.2,522.8,379.5z"/>
			<line id="XMLID_169_" class="st49" x1="547.8" y1="340" x2="486.8" y2="340"/>
			<line id="XMLID_170_" class="st49" x1="505.2" y1="334.2" x2="505.2" y2="369.8"/>
		</g>
		<g id="XMLID_171_">
			<path id="XMLID_172_" class="st18" d="M444.2,528.5h11.5c0,0,0.9,3.7,4.4,5.1c3,1.1,15.2,2.6,18.8,7.6c0.9,1.3-0.2,3-1.7,3h-32.7
				c-1.5,0-2.5-1.3-2.2-2.8C443.1,538.1,444.3,532.3,444.2,528.5z"/>
			<path id="XMLID_173_" class="st18" d="M384,527.4h11.8c0,0-2,4.8,1.5,6.2c3,1.1,15.2,2.6,18.8,7.6c0.9,1.3-0.2,3-1.7,3h-31.2
				c-2,0-3.4-2-2.6-3.9C382.1,536.6,384.1,530.9,384,527.4z"/>
			<path id="XMLID_174_" class="st24" d="M449.4,370.2l13.9,87.1c0.5,3,0.6,5.9,0.3,8.6l-6.2,63.6H442c0,0-3.2-9.6-3-15.2
				c0.2-5.5,0.9-10.8-1.7-19.3c-2.6-8.5-0.4-17.6,0.4-22.9c0.8-5.2,1.2-14.7,1.2-14.7s-13.2-50.1-14.6-56.5
				c-1.4-6.3-6-26.8-1.8-30.8H449.4z"/>
			<linearGradient id="XMLID_6840_" gradientUnits="userSpaceOnUse" x1="464.1241" y1="516.0573" x2="380.9583" y2="326.8553">
				<stop  offset="0" style="stop-color:#FFFFFF"/>
				<stop  offset="0.1227" style="stop-color:#DADADA"/>
				<stop  offset="0.4483" style="stop-color:#7E7E7E"/>
				<stop  offset="0.7128" style="stop-color:#3A3A3A"/>
				<stop  offset="0.9029" style="stop-color:#101010"/>
				<stop  offset="1" style="stop-color:#000000"/>
			</linearGradient>
			<path id="XMLID_175_" class="st50" d="M424.3,401c1.4,6.3,14.6,56.5,14.6,56.5s-0.4,9.5-1.2,14.7c-0.8,5.2-3,14.3-0.4,22.9
				c2.6,8.5,1.8,13.8,1.7,19.3c-0.2,5.5,3,15.2,3,15.2h15.3l6.2-63.6c0.3-2.8,0.2-5.7-0.3-8.6l-1.8-11.2l-40.1-61.6
				C422.1,391,423.6,397.8,424.3,401z"/>
			<path id="XMLID_176_" class="st51" d="M426.5,400.8l19.5,50.4c1.9,4.9,2.8,10.2,2.7,15.5l-1.5,62.9"/>
			<path id="XMLID_177_" class="st24" d="M432.2,370.2l-9.6,86.5c-0.3,2.9-1,5.8-2,8.6l-23.4,63.2h-15.3c0,0-0.5-9.6,1.1-15.1
				s3.8-10.7,3.6-19.2s4.4-17.5,6.6-22.7s5.2-14.6,5.2-14.6s0.4-49.8,0.6-56.1c0.3-6.3,1.3-26.6,6.5-30.6H432.2z"/>
			<path id="XMLID_178_" class="st51" d="M408.4,371.6c0,0-6.2,29.9-3.5,80.6c0.1,2.7-0.3,5.4-1.3,8c-4.1,10.1-15,39.5-16.5,68.3"/>
			<path id="XMLID_179_" class="st51" d="M413.6,372.8c0,0-0.1,13.8-7.6,15.8"/>
			<path id="XMLID_180_" class="st51" d="M438.1,372.8c0,0,1.4,17.7-8.3,19"/>
			<line id="XMLID_181_" class="st51" x1="431.6" y1="375.3" x2="427.7" y2="410.2"/>
			<linearGradient id="XMLID_6841_" gradientUnits="userSpaceOnUse" x1="426.529" y1="388.593" x2="426.529" y2="354.9229">
				<stop  offset="0" style="stop-color:#FFFFFF"/>
				<stop  offset="0.1016" style="stop-color:#D0D0D0"/>
				<stop  offset="0.234" style="stop-color:#999999"/>
				<stop  offset="0.3677" style="stop-color:#6A6A6A"/>
				<stop  offset="0.5" style="stop-color:#444444"/>
				<stop  offset="0.6303" style="stop-color:#262626"/>
				<stop  offset="0.7582" style="stop-color:#111111"/>
				<stop  offset="0.8827" style="stop-color:#040404"/>
				<stop  offset="1" style="stop-color:#000000"/>
			</linearGradient>
			<path id="XMLID_182_" class="st52" d="M449.4,370.2h-17.2h-9.7h-17.2c-1.6,1.2-2.8,3.9-3.7,7.3l49.7,5.3L449.4,370.2z"/>
			<path id="XMLID_260_" class="st41" d="M396.9,339.7c0,0-5.5,13.3-11.8,20.5c-6.3,7.2-34.4,15.2-34.4,15.2s-18.1,4.7-19.3,2.5
				c-1.2-2.2-1.3-3.4-1.3-3.4l6.6-0.2l5.7-3.6l-5-1.3l0.7-1.7c0,0,8.1-1.9,12,1.9l26.6-15.7l8.7-19.5L396.9,339.7z"/>
			<linearGradient id="XMLID_6842_" gradientUnits="userSpaceOnUse" x1="385.8618" y1="348.8997" x2="399.4282" y2="318.4923">
				<stop  offset="0" style="stop-color:#FFFFFF"/>
				<stop  offset="0.1016" style="stop-color:#D0D0D0"/>
				<stop  offset="0.234" style="stop-color:#999999"/>
				<stop  offset="0.3677" style="stop-color:#6A6A6A"/>
				<stop  offset="0.5" style="stop-color:#444444"/>
				<stop  offset="0.6303" style="stop-color:#262626"/>
				<stop  offset="0.7582" style="stop-color:#111111"/>
				<stop  offset="0.8827" style="stop-color:#040404"/>
				<stop  offset="1" style="stop-color:#000000"/>
			</linearGradient>
			<path id="XMLID_183_" class="st53" d="M396.9,339.7l-11.5-5.5l-2.7,6.2l9.6,9C395.1,344.2,396.9,339.7,396.9,339.7z"/>
			<path id="XMLID_184_" class="st26" d="M457.8,306.9c0,0,3.6,3.3,8.6,13.9l-10.3,13.4l-7.8-9.5L457.8,306.9z"/>
			<path id="XMLID_185_" class="st41" d="M441,272.5c0,0-0.7,6.4,5.1,8.4l-3.6,1.5l0.4,7.7c0.1,2-1.5,3.6-3.4,3.6h-2.4
				c-1,0-1.8,0.9-1.7,1.9l1.2,11h-17.2l0.1-13.6l0.3-20.6H441z"/>
			<linearGradient id="XMLID_6843_" gradientUnits="userSpaceOnUse" x1="426.7311" y1="305.3356" x2="432.3448" y2="281.3213">
				<stop  offset="0" style="stop-color:#FFFFFF"/>
				<stop  offset="0.1016" style="stop-color:#D0D0D0"/>
				<stop  offset="0.234" style="stop-color:#999999"/>
				<stop  offset="0.3677" style="stop-color:#6A6A6A"/>
				<stop  offset="0.5" style="stop-color:#444444"/>
				<stop  offset="0.6303" style="stop-color:#262626"/>
				<stop  offset="0.7582" style="stop-color:#111111"/>
				<stop  offset="0.8827" style="stop-color:#040404"/>
				<stop  offset="1" style="stop-color:#000000"/>
			</linearGradient>
			<path id="XMLID_186_" class="st54" d="M435.4,295.6c-0.1-1,0.7-1.9,1.7-1.9h2.4c0.5,0,1-0.1,1.4-0.3c-8.5-1.9-14.7-7.3-14.7-7.3
				c-1.5,0.9-4,1.2-6.7,1.2l-0.1,5.7c10.6,11.1,16.3,6.3,16.3,6.3L435.4,295.6z"/>
			<path id="XMLID_187_" class="st26" d="M440.4,302.2l-1.6-2.9l-8.8,2.3l-1.7,5.3l-1.7-5.3l-8.8-2.3l-1.6,2.9
				c-11.3,2.1-17.5,4.7-17.5,4.7c2.1,16.2,3.6,55.4,3.9,64.1c0,1,0.8,1.7,1.8,1.7H447c2.2,0,4-1.7,4.3-3.9c1.1-11.7,4.6-46.8,6.6-62
				C457.8,306.9,451.7,304.3,440.4,302.2z"/>
			<polyline id="XMLID_188_" class="st55" points="425,303.4 422.6,309.1 417.4,304 			"/>
			<polyline id="XMLID_253_" class="st55" points="431.7,303.4 434.1,309.1 439.3,304 			"/>
			<path id="XMLID_189_" class="st26" d="M398.9,306.9c-4.7,1.8-17.1,29.1-17.1,29.1l15.5,6.5l7.6-14.4L398.9,306.9z"/>
			<path id="XMLID_190_" class="st24" d="M438.8,299.3l-8.8,2.3l-1.7,5.3l-1.7-5.3l-8.8-2.3l-1.5,2.9c-11.3,2.1-17.5,4.7-17.5,4.7
				c1,7.3,1.8,19.2,2.4,30.9h53.1c1.2-11.7,2.5-23.6,3.5-30.9c0,0-6.2-2.7-17.5-4.7L438.8,299.3z"/>
			<polygon id="XMLID_191_" class="st17" points="471.7,361.9 438.2,361.9 447.8,313 481.4,313 			"/>
			<polygon id="XMLID_192_" class="st11" points="474.6,359 441,359 450.6,310.2 484.2,310.2 			"/>
			<path id="XMLID_193_" class="st41" d="M476.2,323.5c0,0,3.2,2.5,3.9,5.4c0,0-3-2.6-4.5-3.3l-1.6,5.2l1.9,2.6c0,0,0.8,4.1,3.5,4.1
				c2.8-0.1,4.1-4.2,4.3-6.7c0.2-2.5-2.1-7.4-2.1-7.4l-0.5,2.5c0,0-2-3.1-4.4-4.4L476.2,323.5z"/>
			<line id="XMLID_194_" class="st49" x1="428.4" y1="306.9" x2="428.4" y2="372.8"/>
			<polyline id="XMLID_195_" class="st49" points="426.7,301.6 424.2,308.4 416.3,302.2 			"/>
			<polyline id="XMLID_245_" class="st49" points="430.1,301.6 432.5,308.4 440.4,302.2 			"/>
			<path id="XMLID_196_" class="st18" d="M423.4,285c-1-1.9,0.7-5.8,2.7-5.8c1.9,0,2.4,3,2.4,3.1c2.9-5.6,3.7-10.7,3.7-10.7h-17.1
				c0,0-1.9,10.1,1.1,16.7c1.2,2.5,3.2,4.8,3.2,4.8c2.8-1.9,5-4.4,6.8-7C426.1,286.1,424.4,286.9,423.4,285z"/>
			<linearGradient id="XMLID_6844_" gradientUnits="userSpaceOnUse" x1="435.0811" y1="284.2139" x2="419.9033" y2="263.9423">
				<stop  offset="0" style="stop-color:#FFFFFF"/>
				<stop  offset="0.1016" style="stop-color:#D0D0D0"/>
				<stop  offset="0.234" style="stop-color:#999999"/>
				<stop  offset="0.3677" style="stop-color:#6A6A6A"/>
				<stop  offset="0.5" style="stop-color:#444444"/>
				<stop  offset="0.6303" style="stop-color:#262626"/>
				<stop  offset="0.7582" style="stop-color:#111111"/>
				<stop  offset="0.8827" style="stop-color:#040404"/>
				<stop  offset="1" style="stop-color:#000000"/>
			</linearGradient>
			<path id="XMLID_197_" class="st56" d="M441,272.5h-9c0.1-0.6,0.2-0.9,0.2-0.9h-17.1c0,0-0.4,2.1-0.5,5l27.9,1.6
				C440.7,275.7,441,272.5,441,272.5z"/>
			<path id="XMLID_198_" class="st13" d="M413.9,274.2h38.3c0,0,0-3.8-10.4-3.8c0,0-4.1-11.6-12.7-11.6
				C417.9,258.8,413.9,266,413.9,274.2z"/>
		</g>
		<line id="XMLID_199_" class="st5" x1="356.5" y1="544.2" x2="492.6" y2="544.2"/>
		<line id="XMLID_200_" class="st5" x1="507.4" y1="544.2" x2="619.8" y2="544.2"/>
		<line id="XMLID_201_" class="st5" x1="600.6" y1="517.1" x2="754.3" y2="517.1"/>
	</g>
</g>
<g id="Mobile">
	<g id="freepik--Screen--inject-2_2_">
		<path id="XMLID_3184_" class="st11" d="M316.7,216.3h-11.5c-1.6,0-2.8,1.4-2.8,2.9v2.1c0,1.6-1.2,2.9-2.8,2.9h-22.5
			c-1.6,0-2.8-1.4-2.8-2.9v-2.1c0-1.6-1.2-2.9-2.8-2.9h-4.1h-10.1c-5,0-9.1,4.1-9.1,9.1l0,145.8c0,5,4.1,9.1,9.1,9.1l59.5,0
			c5,0,9.1-4.1,9.1-9.1c0,0,0,0,0,0l0-145.8C325.9,220.3,321.8,216.3,316.7,216.3C316.8,216.3,316.7,216.3,316.7,216.3z"/>
		<path id="XMLID_3183_" class="st57" d="M316.7,216.3c0,0,0.1,0,0.3,0c0.3,0,0.6,0,0.9,0.1c1.2,0.2,2.4,0.6,3.4,1.2
			c0.8,0.5,1.5,1,2.1,1.7c0.7,0.8,1.3,1.7,1.7,2.7c0.5,1.2,0.7,2.4,0.7,3.7c0,1.3,0,2.8,0,4.3c0,12.1,0,29.6,0,51.3
			c0,21.7,0,47.4,0,76.1v13.6c0,0.9-0.1,1.9-0.3,2.8c-0.3,0.9-0.6,1.8-1.2,2.6c-0.5,0.8-1.2,1.5-1.9,2.1c-1.5,1.2-3.3,1.9-5.3,2
			c-1.9,0.1-3.8,0-5.7,0h-11.6h-23.8h-18.3c-2.1,0.1-4.2-0.5-5.9-1.7c-1.7-1.2-3-3-3.6-5c-0.3-1-0.4-2-0.4-3.1v-3.1
			c0-4.1,0-8.1,0-12.2c0-8,0-16,0-23.8c0-15.6,0-30.6,0-44.9s0-27.9,0-40.7c0-6.4,0-12.5,0-18.4c0-0.7,0-1.5,0-2.2
			c0-0.4,0-0.7,0.1-1.1c0-0.4,0.1-0.7,0.2-1.1c0.3-1.4,1-2.7,1.9-3.9c1.8-2.2,4.6-3.4,7.4-3.3h7.9h5.7c0.6,0,1.3,0.1,1.8,0.5
			c0.5,0.4,0.9,0.9,1.1,1.5c0.2,0.6,0.2,1.2,0.2,1.8v0.9c0,0.3,0,0.6,0,0.9c0.1,0.6,0.3,1.1,0.7,1.5c0.4,0.4,0.8,0.7,1.4,0.9
			c0.3,0.1,0.5,0.1,0.8,0.1h4.1h12h5.3c0.4,0,0.8,0,1.2,0c0.4,0,0.8-0.2,1.1-0.4c0.7-0.4,1.1-1.1,1.3-1.8c0.1-0.4,0.1-0.7,0.1-1.1
			c0-0.4,0-0.7,0-1.1c0-0.4,0-0.7,0-1.1c0.1-0.3,0.2-0.7,0.3-1c0.3-0.6,0.8-1,1.4-1.3c0.6-0.2,1.2-0.2,1.8-0.2h5.9h3.6L316.7,216.3
			l-1.3,0h-3.6h-5.9c-0.6,0-1.2-0.1-1.8,0.2c-0.6,0.2-1.1,0.7-1.4,1.2c-0.2,0.3-0.3,0.6-0.3,0.9c0,0.3-0.1,0.7,0,1
			c0,0.4,0,0.7,0,1.1c0,0.4,0,0.8-0.1,1.1c-0.2,0.8-0.6,1.5-1.3,1.9c-0.4,0.2-0.7,0.4-1.2,0.4c-0.4,0-0.8,0-1.3,0h-21.4
			c-0.3,0-0.6,0-0.9-0.1c-0.6-0.1-1.1-0.5-1.5-0.9c-0.4-0.4-0.6-1-0.7-1.6c0-0.3,0-0.5,0-0.8v-0.9c0-0.6,0-1.2-0.2-1.7
			c-0.2-0.6-0.6-1-1.1-1.4c-0.5-0.3-1.1-0.5-1.7-0.5h-13.6c-2.8-0.1-5.5,1.1-7.3,3.2c-0.9,1.1-1.5,2.4-1.9,3.8
			c-0.1,0.3-0.1,0.7-0.2,1.1s0,0.7,0,1.1v2.2c0,5.9,0,12.1,0,18.4c0,12.7,0,26.3,0,40.7v44.9c0,7.8,0,15.7,0,23.8v15.2
			c0,1,0.1,2,0.4,3c0.6,2,1.8,3.7,3.5,4.8c1.7,1.2,3.7,1.7,5.8,1.6h6.1h12.2h23.8h11.6c1.9,0,3.8,0,5.7,0c1.9-0.1,3.7-0.8,5.1-2
			c0.7-0.6,1.3-1.3,1.8-2c0.5-0.8,0.9-1.6,1.1-2.5c0.2-0.9,0.4-1.8,0.3-2.7c0-0.9,0-1.8,0-2.8c0-3.7,0-7.3,0-10.9
			c0-28.6,0-54.4,0-76.1c0-21.6,0-39.2,0.1-51.3c0-1.5,0-2.9,0-4.3c0-1.3-0.2-2.5-0.7-3.7c-0.4-1-1-1.9-1.7-2.7
			c-1.4-1.6-3.3-2.6-5.4-2.9c-0.3,0-0.6-0.1-0.9-0.1C316.8,216.3,316.7,216.3,316.7,216.3z"/>
		<path id="XMLID_3182_" class="st57" d="M262.9,231c0,0-1.5,0.1-3.4,0.1s-3.4,0-3.4,0s1.5-0.1,3.4-0.1
			C261.4,230.9,262.9,230.9,262.9,231z"/>
		<path id="XMLID_3181_" class="st57" d="M262.9,232.7c0,0-1.5,0.1-3.4,0.1s-3.4,0-3.4,0s1.5-0.1,3.4-0.1
			C261.4,232.6,262.9,232.7,262.9,232.7z"/>
		<path id="XMLID_3180_" class="st57" d="M262.9,234.4c0,0-1.5,0.1-3.4,0.1c-1.9,0-3.4,0-3.4,0c0,0,1.5-0.1,3.4-0.1
			C261.4,234.4,262.9,234.4,262.9,234.4z"/>
		<rect id="XMLID_3179_" x="255" y="343.4" class="st58" width="29.9" height="29.9"/>
		<path id="XMLID_3178_" class="st59" d="M281.4,360.5c-2.4-3.4-7.6-5.7-11.8-5.1c-3.4,0.5-6.4,2.1-8.1,5.5
			c-0.4,0.8-0.1,1.7,0.7,2.1c0.2,0.1,0.3,0.1,0.5,0.2c5.7,0.7,11.4,0.7,17.1-0.1c0.9-0.1,1.9-0.4,2-1.4
			C281.8,361.2,281.6,360.8,281.4,360.5z"/>
		<g id="XMLID_3176_" class="st60">
			<path id="XMLID_3177_" class="st11" d="M281.4,360.5c-2.4-3.4-7.6-5.7-11.8-5.1c-3.4,0.5-6.4,2.1-8.1,5.5"/>
		</g>
		<path id="XMLID_3175_" class="st58" d="M267.9,360.4c0,0-0.2-0.2-0.4-0.5c-0.3-0.4-0.5-0.9-0.6-1.4c-0.1-0.5-0.1-1-0.1-1.5
			c0-0.2,0-0.4,0.1-0.6c0.1,0.2,0.1,0.4,0.1,0.6c0,0.5,0.1,1,0.2,1.5c0.1,0.5,0.3,0.9,0.6,1.4C267.8,360,267.9,360.2,267.9,360.4z"
			/>
		<path id="XMLID_3174_" class="st58" d="M271.6,360.2c-0.1,0,0-1-0.1-2.1s-0.4-2.1-0.3-2.1C271.7,357.3,271.8,358.8,271.6,360.2z"
			/>
		<path id="XMLID_3173_" class="st58" d="M275.3,359.6c-0.1,0,0.2-0.7,0.3-1.5s-0.1-1.5,0-1.5C275.9,357.6,275.8,358.7,275.3,359.6z
			"/>
		<g id="XMLID_3171_" class="st61">
			<path id="XMLID_3172_" class="st28" d="M270.9,355.6L270.9,355.6L270.9,355.6L270.9,355.6z"/>
		</g>
		<rect id="XMLID_3170_" x="255" y="246.8" class="st58" width="30.2" height="45.3"/>
		<rect id="XMLID_3169_" x="255" y="295.5" class="st58" width="30.2" height="45.3"/>
		<rect id="XMLID_3168_" x="288.1" y="287" class="st58" width="30.2" height="42.3"/>
		<rect id="XMLID_3167_" x="287.9" y="332.3" class="st58" width="30.2" height="41"/>
		<rect id="XMLID_3166_" x="288.1" y="246.8" class="st58" width="30.2" height="37.4"/>
		<path id="XMLID_3165_" class="st62" d="M274.9,260.4v12.6c0,0.5-0.4,1.1-1.3,1.5c-1.1,0.5-2.3,0.8-3.5,0.7h0c-3,0-4.7-1.2-4.7-2.3
			v-12.6c0-1.2,0.9-2.5,1.8-3.8c0.6-0.8,0.8-2.1,0.8-2.8c0-0.1,0-0.2,0-0.2h-0.1c-0.4,0-0.7-0.2-0.7-0.6v-0.5c0-0.4,0.3-0.6,0.7-0.6
			h4.5c0.3,0,0.5,0.1,0.7,0.4c0,0.1,0.1,0.2,0.1,0.2v0.5c0,0.4-0.3,0.6-0.7,0.6h-0.1c0,0.1,0,0.1,0,0.2c0,0.7,0.2,1.9,0.8,2.8
			C274,257.8,274.9,259.1,274.9,260.4L274.9,260.4z"/>
		<path id="XMLID_3164_" class="st57" d="M274.9,260.4v-0.1c0-0.1,0-0.3-0.1-0.4c-0.1-0.5-0.3-0.9-0.5-1.4c-0.4-0.7-0.8-1.3-1.3-1.9
			c-0.5-0.9-0.8-1.9-0.8-3v-0.1h0c0.3,0,0.6-0.2,0.7-0.5c0-0.2,0-0.4,0-0.5c0-0.2,0-0.3-0.2-0.4c-0.1-0.1-0.3-0.2-0.5-0.2h-1.8H268
			c-0.2,0-0.4,0.1-0.5,0.2c-0.1,0.1-0.1,0.2-0.1,0.3c0,0.1,0,0.2,0,0.3c0,0.1,0,0.2,0,0.3c0,0.1,0.1,0.2,0.1,0.3
			c0.2,0.2,0.4,0.2,0.6,0.2h0.1v0.1c0,0.5-0.1,1-0.2,1.5c-0.1,0.5-0.3,1-0.6,1.5c-0.7,0.9-1.2,1.8-1.6,2.8c-0.1,0.3-0.1,0.5-0.2,0.8
			c0,0.3,0,0.6,0,0.8v1.7c0,1.2,0,2.4,0,3.6c0,2.1,0,4.2,0,6.2c0,0.2,0,0.5,0,0.7c0.1,0.2,0.2,0.4,0.3,0.6c0.3,0.3,0.7,0.6,1.2,0.8
			c0.9,0.3,1.8,0.5,2.7,0.6c0.9,0,1.8,0,2.6-0.2c0.8-0.2,1.6-0.6,2.1-1.1c0.1-0.1,0.2-0.3,0.3-0.5c0-0.2,0.1-0.4,0-0.6v-1.2
			c0-0.8,0-1.5,0-2.2c0-2.8,0-5,0-6.6c0-0.8,0-1.4,0-1.8C274.8,260.6,274.9,260.4,274.9,260.4c0,0.2,0,0.4,0,0.6c0,0.4,0,1,0,1.8
			c0,1.6,0,3.8,0,6.6c0,0.7,0,1.4,0,2.2v1.2c0,0.2,0,0.4,0,0.6c-0.1,0.2-0.2,0.4-0.3,0.6c-0.6,0.6-1.4,1-2.2,1.2
			c-0.9,0.2-1.8,0.3-2.7,0.3c-1,0-1.9-0.2-2.8-0.6c-0.5-0.2-0.9-0.5-1.2-0.8c-0.2-0.2-0.3-0.4-0.4-0.7c0-0.3-0.1-0.5,0-0.8
			c0-2,0-4.1,0-6.2c0-1.2,0-2.4,0-3.6V261c0-0.3,0-0.6,0-0.9c0-0.3,0.1-0.6,0.2-0.8c0.4-1,1-2,1.7-2.8c0.5-0.9,0.8-1.9,0.7-2.9
			l0.1,0.1c-0.3,0-0.5-0.1-0.7-0.3c-0.1-0.1-0.2-0.2-0.2-0.4c0-0.1,0-0.2,0-0.4c0-0.1,0-0.2,0-0.4c0-0.1,0.1-0.3,0.2-0.3
			c0.2-0.2,0.4-0.3,0.7-0.2h2.6h1.8c0.2,0,0.4,0.1,0.6,0.2c0.2,0.1,0.2,0.3,0.2,0.6c0,0.2,0,0.4,0,0.6c-0.1,0.4-0.5,0.6-0.9,0.6
			l0.1-0.1c0,1,0.2,2.1,0.7,2.9c0.5,0.6,0.9,1.3,1.3,2c0.2,0.4,0.4,0.9,0.5,1.4c0,0.1,0,0.3,0,0.4
			C274.9,260.3,274.9,260.3,274.9,260.4z"/>
		<path id="XMLID_3163_" class="st57" d="M272,253.5c-1.3,0.1-2.7,0.1-4,0C269.4,253.4,270.7,253.4,272,253.5z"/>
		<path id="XMLID_3162_" class="st59" d="M274.5,262c-0.4-0.2-0.9-0.2-1.4,0.1c-0.4,0.2-0.8,0.4-1.3,0.6c-0.6,0.1-1.1-0.1-1.6-0.4
			c-0.5-0.3-1-0.6-1.5-0.8c-1-0.4-2.2-0.1-3,0.7v10.8c0,0,0.6,1.8,4.8,1.5c4.2-0.3,3.8-2.1,3.8-2.1L274.5,262z"/>
		<path id="XMLID_3161_" class="st62" d="M306.7,347.5L306.7,347.5V360c0,0.5-0.4,1.1-1.3,1.5c-1.1,0.5-2.3,0.8-3.5,0.7l0,0
			c-3,0-4.7-1.2-4.7-2.3v-12.4l0,0c0,0,0,0,0,0c0-1.2,0.9-2.5,1.8-3.7c0.6-0.8,0.8-2.1,0.8-2.8c0-0.1,0-0.2,0-0.2h-0.1
			c-0.4,0-0.7-0.2-0.7-0.6v-0.5c0-0.4,0.3-0.6,0.7-0.6h4.4c0.3,0,0.5,0.1,0.6,0.4c0,0.1,0.1,0.2,0.1,0.2v0.5c0,0.4-0.3,0.6-0.7,0.6
			h-0.1c0,0.1,0,0.1,0,0.2c0,0.7,0.2,1.9,0.8,2.8C305.8,345,306.7,346.3,306.7,347.5C306.7,347.5,306.7,347.5,306.7,347.5z"/>
		<path id="XMLID_3160_" class="st57" d="M306.7,347.5c0,0,0-0.1,0-0.1c0-0.1,0-0.3,0-0.4c-0.1-0.5-0.3-0.9-0.5-1.3
			c-0.4-0.7-0.8-1.3-1.3-1.9c-0.5-0.9-0.8-1.9-0.8-3v-0.1h0.1c0.3,0,0.6-0.2,0.7-0.5c0-0.2,0-0.4,0-0.5c0-0.2-0.1-0.3-0.2-0.4
			c-0.1-0.1-0.3-0.2-0.5-0.2h-1.8h-2.5c-0.2,0-0.4,0.1-0.5,0.2c-0.1,0.1-0.1,0.2-0.1,0.3c0,0.1,0,0.2,0,0.3c0,0.1,0,0.2,0,0.3
			c0,0.1,0.1,0.2,0.1,0.3c0.1,0.1,0.4,0.2,0.6,0.2h0.1v0.1c0,0.5-0.1,1-0.2,1.5c-0.1,0.5-0.3,1-0.6,1.5c-0.7,0.9-1.2,1.8-1.6,2.8
			c-0.1,0.3-0.1,0.5-0.2,0.8c0,0.3,0,0.6,0,0.8c0,0.6,0,1.1,0,1.7v3.5c0,2.1,0,4.1,0,6.1c0,0.2,0,0.5,0,0.7c0.1,0.2,0.2,0.4,0.3,0.6
			c0.3,0.3,0.7,0.6,1.1,0.8c0.9,0.3,1.8,0.5,2.7,0.5c0.9,0,1.8,0,2.6-0.2c0.8-0.2,1.5-0.6,2.1-1.1c0.1-0.1,0.2-0.3,0.3-0.5
			c0-0.2,0.1-0.4,0-0.6c0-0.4,0-0.8,0-1.1c0-0.8,0-1.5,0-2.2c0-2.7,0-5,0-6.5c0-0.8,0-1.4,0-1.8
			C306.7,347.8,306.7,347.6,306.7,347.5c0,0.2,0,0.4,0,0.6c0,0.4,0,1,0,1.8c0,1.5,0,3.8,0,6.5c0,0.7,0,1.4,0,2.2c0,0.4,0,0.8,0,1.1
			c0,0.2,0,0.4-0.1,0.6c-0.1,0.2-0.2,0.4-0.3,0.6c-0.6,0.6-1.4,1-2.2,1.2c-0.9,0.2-1.8,0.3-2.7,0.3c-0.9,0-1.9-0.2-2.8-0.6
			c-0.4-0.2-0.8-0.5-1.2-0.8c-0.2-0.2-0.3-0.4-0.4-0.7c0-0.3-0.1-0.5,0-0.8v-11.4c0-0.3,0-0.6,0-0.9c0-0.3,0.1-0.6,0.2-0.8
			c0.4-1,1-2,1.7-2.8c0.5-0.9,0.8-1.9,0.7-2.9l0.1,0.1c-0.3,0-0.5-0.1-0.7-0.3c-0.1-0.1-0.2-0.2-0.2-0.4c0-0.1,0-0.2,0-0.4
			c0-0.1,0-0.2,0-0.4c0-0.1,0.1-0.2,0.2-0.3c0.2-0.2,0.4-0.3,0.7-0.2h2.5h1.8c0.2,0,0.4,0.1,0.6,0.2c0.2,0.1,0.2,0.3,0.2,0.5
			c0,0.2,0,0.4,0,0.5c-0.1,0.4-0.5,0.6-0.9,0.6l0.1-0.1c0,1,0.2,2,0.7,2.9c0.5,0.6,0.9,1.3,1.3,2c0.2,0.4,0.4,0.9,0.5,1.4
			c0,0.1,0,0.2,0,0.4C306.7,347.5,306.7,347.5,306.7,347.5z"/>
		<path id="XMLID_3159_" class="st57" d="M303.9,340.8c-1.3,0.1-2.6,0.1-3.9,0C301.2,340.6,302.5,340.6,303.9,340.8z"/>
		<path id="XMLID_3158_" class="st59" d="M306.3,349.2c-0.4-0.2-0.9-0.2-1.4,0.1c-0.4,0.2-0.8,0.4-1.3,0.6c-0.6,0.1-1.1-0.1-1.6-0.4
			c-0.5-0.3-1-0.6-1.5-0.8c-1-0.3-2.2-0.1-2.9,0.7V360c0,0,0.6,1.8,4.7,1.5c4.1-0.3,3.8-2.1,3.8-2.1L306.3,349.2z"/>
		<g id="XMLID_3156_" class="st60">
			<path id="XMLID_3157_" class="st11" d="M306.3,349.2c-0.4-0.2-0.9-0.2-1.4,0.1c-0.4,0.2-0.8,0.4-1.3,0.6
				c-0.6,0.1-1.1-0.1-1.6-0.4c-0.5-0.3-1-0.6-1.5-0.8c-1-0.3-2.2-0.1-2.9,0.7V360c0,0,0.6,1.8,4.7,1.5c4.1-0.3,3.8-2.1,3.8-2.1
				L306.3,349.2z"/>
		</g>
		<path id="XMLID_3155_" class="st59" d="M313.2,302.3c-0.3-0.1-0.6-0.1-0.8,0.1c-0.1,0-0.1,0.1-0.2,0.1c-2,1.5-4.5,2.3-7,2.2
			c-4.9,0-8.9-2.7-9.7-6.3v-0.7c0-0.3-0.2-0.5-0.4-0.5c-0.3,0-0.5,0.2-0.5,0.4c0,0,0,0.1,0,0.1v1.9c0,0,0,0.1,0,0.1
			c-0.3,0.7-0.5,1.5-0.5,2.4c0,4.1,4.4,7.5,9.8,7.5c4.5,0,8.4-2.4,9.5-5.6c0,0,0,0,0-0.1c0.1-0.3,0.2-0.5,0.2-0.8
			C313.6,302.8,313.5,302.5,313.2,302.3z"/>
		<g id="XMLID_3153_" class="st61">
			<path id="XMLID_3154_" class="st28" d="M295.1,300.3c0,0,4.6,10.6,17.1,3.2c0,0-3.2,3.3-7.4,4.2
				C301,308.3,295.4,306.2,295.1,300.3z"/>
		</g>
		<path id="XMLID_3152_" class="st57" d="M313.5,302.8c-0.1,0.2-0.4,0.2-0.7,0.1c-0.3-0.1-0.5-0.4-0.4-0.6s0.4-0.2,0.7-0.1
			C313.4,302.4,313.6,302.6,313.5,302.8z"/>
		<path id="XMLID_3151_" class="st57" d="M318.2,234.3C318.1,234.3,318.1,234.3,318.2,234.3h-0.4h-1l-3.5,0h0v0
			c0-0.2-0.1-0.4-0.1-0.6c-0.2-1.7-0.5-3.2-0.6-4.2h0h-1.2c0,0-0.1,0-0.1,0h0.1h0.3h0.9h0v0c0.1,1,0.4,2.5,0.6,4.2
			c0,0.2,0.1,0.4,0.1,0.6l0,0h3.5L318.2,234.3L318.2,234.3z"/>
		<path id="XMLID_3150_" class="st57" d="M313.1,233.3C313.1,233.3,313.1,233.3,313.1,233.3L313.1,233.3h0.4h1.1l3.6,0l0,0
			c0.1-0.6,0.2-1.3,0.3-2c0.1-0.4,0.1-0.7,0.2-1l0,0h-4.3h-1.7c0,0,0,0,0,0h0.1h0.3h1.3l4.3,0h0v0l-0.2,1c-0.1,0.7-0.2,1.4-0.3,2v0
			h0h-3.6L313.1,233.3L313.1,233.3z"/>
		<path id="XMLID_316_" class="st57" d="M314.5,235.7c0,0,0,0,0-0.1c0-0.1-0.1-0.2-0.2-0.3c-0.1-0.1-0.3-0.1-0.4-0.1
			c-0.2,0.1-0.4,0.4-0.3,0.6c0,0.1,0.1,0.2,0.3,0.3c0.1,0.1,0.3,0,0.4-0.1c0.1-0.1,0.1-0.2,0.2-0.3
			C314.5,235.7,314.5,235.7,314.5,235.7c0,0,0,0.1,0,0.1c0,0.1-0.1,0.2-0.2,0.3c-0.1,0.1-0.3,0.1-0.5,0.1c-0.3-0.1-0.4-0.4-0.3-0.7
			c0.1-0.2,0.2-0.3,0.3-0.3c0.2-0.1,0.4,0,0.5,0.1c0.1,0.1,0.2,0.2,0.2,0.3C314.5,235.6,314.5,235.7,314.5,235.7z"/>
		<path id="XMLID_315_" class="st57" d="M317.7,235.7c0,0,0,0,0-0.1c0-0.1-0.1-0.2-0.2-0.3c-0.1-0.1-0.3-0.1-0.4-0.1
			c-0.2,0.1-0.4,0.3-0.3,0.6c0.1,0.2,0.3,0.4,0.6,0.3c0.1,0,0.1-0.1,0.2-0.1c0.1-0.1,0.2-0.2,0.2-0.3
			C317.7,235.7,317.7,235.7,317.7,235.7c0,0,0,0.1,0,0.1c0,0.1-0.1,0.2-0.2,0.3c-0.2,0.2-0.6,0.1-0.7-0.1c-0.1-0.1-0.1-0.2-0.1-0.3
			c0-0.2,0.1-0.4,0.3-0.5c0.2-0.1,0.4,0,0.5,0.1c0.1,0.1,0.2,0.2,0.2,0.3C317.7,235.6,317.7,235.6,317.7,235.7z"/>
		<circle id="XMLID_314_" class="st59" cx="318.4" cy="229.8" r="1.4"/>
		<path id="XMLID_313_" class="st11" d="M318.6,229.3v1.1h-0.3v-0.9h-0.2v-0.2H318.6z"/>
		<path id="XMLID_312_" class="st59" d="M266.4,359.6h41.2c3.1,0,5.5,2.5,5.5,5.5v2.7c0,3.1-2.5,5.5-5.5,5.5h-41.2
			c-3.1,0-5.5-2.5-5.5-5.5v-2.7C260.8,362.1,263.3,359.6,266.4,359.6z"/>
		<g id="XMLID_310_" class="st61">
			<path id="XMLID_311_" class="st28" d="M266.4,359.6h41.2c3.1,0,5.5,2.5,5.5,5.5v2.7c0,3.1-2.5,5.5-5.5,5.5h-41.2
				c-3.1,0-5.5-2.5-5.5-5.5v-2.7C260.8,362.1,263.3,359.6,266.4,359.6z"/>
		</g>
		<path id="XMLID_309_" class="st59" d="M264.3,359.6h41.2c3.1,0,5.5,2.5,5.5,5.5v2.7c0,3.1-2.5,5.5-5.5,5.5h-41.2
			c-3.1,0-5.5-2.5-5.5-5.5v-2.7C258.8,362.1,261.3,359.6,264.3,359.6z"/>
		<path id="XMLID_306_" class="st11" d="M283.3,365.7c0,0.7-0.5,1.1-1.4,1.1h-0.8v1h-0.5v-3.2h1.3
			C282.8,364.6,283.3,365,283.3,365.7z M282.9,365.7c0-0.5-0.3-0.7-0.9-0.7h-0.8v1.5h0.8C282.6,366.5,282.9,366.2,282.9,365.7
			L282.9,365.7z"/>
		<path id="XMLID_303_" class="st11" d="M285.9,367h-1.7l-0.4,0.8h-0.5l1.5-3.2h0.5l1.5,3.2h-0.5L285.9,367z M285.8,366.7l-0.7-1.6
			l-0.7,1.6H285.8z"/>
		<path id="XMLID_302_" class="st11" d="M288.3,366.7v1.1h-0.5v-1.1l-1.3-2.1h0.5l1,1.7l1-1.7h0.5L288.3,366.7z"/>
		<path id="XMLID_301_" class="st63" d="M271.1,311c0.5-3.2-1.7-6.2-4.9-6.7c0,0,0,0,0,0c-0.2-0.1-0.5,0-0.6,0.3c0,0.1,0,0.2,0,0.4
			c0.3,3.1,2.5,5.6,5.5,6.2"/>
		<path id="XMLID_300_" class="st59" d="M262.9,321.8c1.5,3,3.6,5.1,6.2,5.2c0.5,0,0.9-0.3,1.4-0.4c0.3,0.1,0.6,0.2,0.8,0.3
			c0.1,0.1,0.3,0.1,0.4,0.1c2.7-0.1,5-2.1,6.6-5.3c2.2-4.5,1.5-9.3-1.5-10.8c-0.4-0.2-0.8-0.4-1.2-0.5c-0.5-0.1-1-0.2-1.5-0.2
			c-1.2,0.1-2.3,0.3-3.4,0.8l-0.1,0.1c-2.4-1.1-4.4-1.1-6.3-0.2C261.4,312.5,260.8,317.3,262.9,321.8z"/>
		<path id="XMLID_299_" class="st62" d="M263,317.2c-0.1-0.3-0.2-0.6-0.2-0.9c-0.2-1.5,0.4-3.1,1.5-4.1c0.2-0.2,0.5-0.4,0.8-0.5
			c0,0-0.3,0.2-0.7,0.6c-1,1.1-1.6,2.5-1.5,4C262.9,316.9,263,317.2,263,317.2z"/>
		<path id="XMLID_298_" class="st62" d="M263.5,319.4c-0.1,0-0.2-0.2-0.2-0.5c-0.1-0.3-0.1-0.5,0-0.5c0.1,0,0.2,0.2,0.2,0.5
			S263.6,319.4,263.5,319.4z"/>
		<path id="XMLID_297_" class="st57" d="M277.3,303.6c0,0-0.6,0.3-1.4,0.8c-0.5,0.3-1,0.6-1.4,1c-0.5,0.5-1,1-1.5,1.5
			c-0.4,0.5-0.8,1.1-1.2,1.8c-0.3,0.5-0.5,1-0.7,1.6c-0.3,0.9-0.4,1.5-0.5,1.5c0-0.1,0-0.3,0-0.4c0-0.2,0.1-0.3,0.1-0.5
			c0-0.2,0.1-0.4,0.2-0.6c0.2-0.6,0.4-1.1,0.7-1.6c0.7-1.3,1.6-2.4,2.7-3.3c0.5-0.4,0.9-0.7,1.4-1c0.2-0.1,0.4-0.2,0.6-0.3
			c0.2-0.1,0.3-0.1,0.5-0.2C277.1,303.7,277.2,303.7,277.3,303.6z"/>
		<path id="XMLID_296_" class="st59" d="M314.2,262c-2.4-3.4-7.6-5.7-11.8-5.1c-3.4,0.5-6.4,2.1-8.1,5.5c-0.4,0.8-0.1,1.7,0.7,2.1
			c0.2,0.1,0.3,0.1,0.5,0.1c5.7,0.7,11.4,0.7,17.1-0.1c0.9-0.1,1.9-0.4,2-1.4C314.6,262.7,314.5,262.3,314.2,262z"/>
		<path id="XMLID_295_" class="st57" d="M300.8,261.8c0,0-0.2-0.2-0.4-0.5c-0.3-0.4-0.5-0.9-0.6-1.4c-0.1-0.5-0.1-1-0.1-1.5
			c0-0.2,0-0.4,0.1-0.6c0.1,0.2,0.1,0.4,0.1,0.6c0,0.5,0.1,1,0.2,1.5c0.1,0.5,0.3,1,0.6,1.4C300.6,261.4,300.7,261.6,300.8,261.8z"
			/>
		<path id="XMLID_294_" class="st57" d="M304.4,261.6c-0.1,0,0-1-0.1-2.1c-0.1-1.2-0.4-2.1-0.3-2.1c0.3,0.7,0.5,1.4,0.5,2.1
			C304.6,260.2,304.6,260.9,304.4,261.6z"/>
		<path id="XMLID_293_" class="st57" d="M308.1,261.1c-0.1,0,0.2-0.7,0.3-1.5s-0.1-1.5,0-1.5C308.8,259,308.7,260.2,308.1,261.1z"/>
		<g id="XMLID_291_" class="st61">
			<path id="XMLID_292_" class="st28" d="M303.7,257L303.7,257L303.7,257L303.7,257z"/>
		</g>
		<g id="XMLID_289_" class="st61">
			<path id="XMLID_290_" class="st28" d="M303.8,257.1c-0.8,1.4-0.5,3.1,0.6,4.3C304.7,259.9,304.5,258.4,303.8,257.1z"/>
		</g>
		<g id="XMLID_286_" class="st61">
			<path id="XMLID_287_" class="st28" d="M300.3,261.2c-0.4-0.7-0.6-1.5-0.7-2.3c0-0.4,0-0.7-0.2-1c-0.4,0.5-0.6,1.2-0.6,1.8
				c0.1,0.7,0.4,1.4,0.9,1.8c0.1,0.1,0.2,0.1,0.3,0.2c0.1,0,0.2,0,0.3-0.1C300.4,261.5,300.4,261.3,300.3,261.2z"/>
		</g>
		<g id="XMLID_284_" class="st61">
			<path id="XMLID_285_" class="st28" d="M308.5,258.3L308.5,258.3c0-0.1-0.1-0.3-0.1-0.4c-0.1-0.1-0.2-0.2-0.3-0.2
				c-0.2,0-0.3,0.2-0.3,0.4c-0.3,0.8-0.4,1.6-0.3,2.5c0,0.2,0.2,0.4,0.4,0.4c0.2,0,0.2-0.2,0.3-0.3
				C308.4,260,308.6,259.2,308.5,258.3z"/>
		</g>
		<path id="XMLID_280_" class="st57" d="M262.1,283.8v0.4h-0.3v-0.4c-0.3,0-0.6-0.1-0.8-0.3l0.1-0.3c0.2,0.1,0.4,0.2,0.7,0.3v-0.7
			c-0.4-0.1-0.8-0.2-0.8-0.7c0-0.3,0.2-0.6,0.8-0.7v-0.4h0.3v0.4c0.2,0,0.5,0.1,0.7,0.2l-0.1,0.3c-0.2-0.1-0.3-0.2-0.5-0.2v0.7
			c0.4,0.1,0.8,0.2,0.8,0.7C262.9,283.5,262.6,283.8,262.1,283.8z M261.8,282.4v-0.6c-0.2,0-0.3,0.2-0.3,0.3
			S261.6,282.4,261.8,282.4z M262.5,283.2c0-0.2-0.1-0.2-0.3-0.3v0.6C262.4,283.4,262.5,283.3,262.5,283.2z"/>
		<path id="XMLID_279_" class="st57" d="M264.9,281.5v2.3h-0.4v-2h-0.5v-0.4H264.9z"/>
		<path id="XMLID_278_" class="st57" d="M265.9,283.6c0,0.1,0,0.2-0.1,0.3l-0.2,0.5h-0.3l0.1-0.5c-0.1,0-0.2-0.1-0.2-0.2
			c0-0.1,0.1-0.3,0.2-0.3S265.9,283.3,265.9,283.6C265.9,283.5,265.9,283.5,265.9,283.6z"/>
		<path id="XMLID_277_" class="st57" d="M267.9,283.1c0,0.4-0.3,0.8-0.9,0.8c-0.3,0-0.6-0.1-0.9-0.3l0.2-0.3
			c0.2,0.2,0.4,0.2,0.7,0.2c0.3,0,0.5-0.1,0.5-0.4s-0.1-0.4-0.6-0.4h-0.6l0.1-1.3h1.4v0.4h-1l-0.1,0.5h0.2
			C267.6,282.4,267.9,282.7,267.9,283.1z"/>
		<path id="XMLID_274_" class="st57" d="M268.1,282.6c0-0.8,0.4-1.2,1-1.2s1,0.4,1,1.2c0,0.8-0.4,1.2-1,1.2S268.1,283.4,268.1,282.6
			z M269.6,282.6c0-0.6-0.2-0.8-0.5-0.8s-0.5,0.3-0.5,0.8c0,0.6,0.2,0.8,0.5,0.8S269.6,283.2,269.6,282.6z"/>
		<path id="XMLID_273_" class="st57" d="M279.7,286.8c0,0.1-4.3,0.1-9.6,0.1s-9.6,0-9.6-0.1c0-0.1,4.3-0.1,9.6-0.1
			S279.7,286.7,279.7,286.8z"/>
		<path id="XMLID_272_" class="st57" d="M269.5,288.3c0,0.1-2,0.1-4.4,0.1c-2.4,0-4.4,0-4.4-0.1c0-0.1,2-0.1,4.4-0.1
			S269.5,288.3,269.5,288.3z"/>
		<path id="XMLID_268_" class="st57" d="M295.6,274.3v0.4h-0.3v-0.4c-0.3,0-0.6-0.1-0.8-0.3l0.1-0.3c0.2,0.1,0.4,0.2,0.7,0.3v-0.7
			c-0.4-0.1-0.8-0.2-0.8-0.7c0-0.3,0.2-0.6,0.8-0.7v-0.4h0.3v0.4c0.2,0,0.5,0.1,0.7,0.2l-0.1,0.3c-0.2-0.1-0.3-0.2-0.5-0.2v0.7
			c0.4,0.1,0.8,0.2,0.8,0.7C296.4,273.9,296.2,274.2,295.6,274.3z M295.4,272.9v-0.6c-0.2,0-0.3,0.2-0.3,0.3
			C295,272.7,295.2,272.8,295.4,272.9L295.4,272.9z M296,273.6c0-0.2-0.1-0.2-0.3-0.3v0.6C295.9,273.9,296,273.8,296,273.6
			L296,273.6z"/>
		<path id="XMLID_267_" class="st57" d="M299.3,273.9v0.4h-1.7V274l0.9-0.9c0.2-0.2,0.3-0.4,0.3-0.5c0-0.2-0.1-0.3-0.4-0.3
			c-0.2,0-0.4,0.1-0.5,0.2l-0.3-0.2c0.2-0.3,0.5-0.4,0.9-0.4c0.5,0,0.8,0.3,0.8,0.7c0,0.3-0.2,0.6-0.4,0.7l-0.6,0.6L299.3,273.9z"/>
		<path id="XMLID_266_" class="st57" d="M300.1,274c0,0.1,0,0.2-0.1,0.3l-0.2,0.5h-0.3l0.1-0.5c-0.1,0-0.2-0.1-0.2-0.2
			c0-0.1,0.1-0.3,0.3-0.3C300,273.7,300.1,273.9,300.1,274C300.1,274,300.1,274,300.1,274z"/>
		<path id="XMLID_265_" class="st57" d="M302.1,273.9v0.4h-1.7V274l0.9-0.9c0.2-0.2,0.3-0.4,0.3-0.5c0-0.2-0.1-0.3-0.4-0.3
			c-0.2,0-0.4,0.1-0.5,0.2l-0.3-0.2c0.2-0.3,0.5-0.4,0.9-0.4c0.5,0,0.8,0.3,0.8,0.7c0,0.3-0.2,0.6-0.4,0.7l-0.6,0.6L302.1,273.9z"/>
		<path id="XMLID_264_" class="st57" d="M304.1,273.6c0,0.4-0.3,0.7-0.9,0.7c-0.3,0-0.6-0.1-0.9-0.3l0.2-0.3
			c0.2,0.2,0.4,0.2,0.7,0.2c0.3,0,0.5-0.1,0.5-0.4c0-0.2-0.1-0.4-0.6-0.4h-0.6l0.1-1.3h1.4v0.4h-1l-0.1,0.5h0.2
			C303.8,272.8,304.1,273.1,304.1,273.6z"/>
		<path id="XMLID_263_" class="st57" d="M313.2,277.2c0,0.1-4.3,0.1-9.6,0.1s-9.6,0-9.6-0.1s4.3-0.1,9.6-0.1
			C308.9,277.1,313.2,277.2,313.2,277.2z"/>
		<path id="XMLID_262_" class="st57" d="M303,278.8c0,0.1-2,0.1-4.4,0.1s-4.4,0-4.4-0.1s2-0.1,4.4-0.1
			C301,278.7,303,278.7,303,278.8z"/>
		<path id="XMLID_257_" class="st57" d="M261.3,332.3v0.4h-0.3v-0.4c-0.3,0-0.6-0.1-0.8-0.3l0.2-0.3c0.2,0.1,0.4,0.2,0.7,0.3v-0.7
			c-0.4-0.1-0.8-0.2-0.8-0.7c0-0.3,0.2-0.6,0.8-0.7v-0.4h0.3v0.4c0.2,0,0.5,0.1,0.7,0.2l-0.1,0.3c-0.2-0.1-0.4-0.2-0.5-0.2v0.7
			c0.4,0.1,0.8,0.2,0.8,0.7C262.1,332,261.9,332.3,261.3,332.3z M261.1,330.9v-0.6c-0.2,0-0.3,0.2-0.3,0.3
			C260.7,330.7,260.9,330.8,261.1,330.9L261.1,330.9z M261.7,331.7c0-0.2-0.1-0.2-0.3-0.3v0.6C261.6,331.9,261.7,331.8,261.7,331.7
			L261.7,331.7z"/>
		<path id="XMLID_254_" class="st57" d="M263.3,331.1c0-0.8,0.4-1.2,1-1.2c0.6,0,1,0.4,1,1.2s-0.4,1.2-1,1.2
			S263.3,331.9,263.3,331.1z M264.8,331.1c0-0.6-0.2-0.8-0.5-0.8c-0.3,0-0.5,0.3-0.5,0.8s0.2,0.8,0.5,0.8
			C264.6,331.9,264.8,331.7,264.8,331.1z"/>
		<path id="XMLID_252_" class="st57" d="M266,332c0,0.1,0,0.2-0.1,0.3l-0.2,0.5h-0.3l0.1-0.5c-0.1,0-0.2-0.1-0.2-0.2
			c0-0.1,0.1-0.3,0.2-0.3C265.9,331.7,266,331.8,266,332C266,332,266,332,266,332L266,332z"/>
		<path id="XMLID_251_" class="st57" d="M268,331.6c0,0.4-0.3,0.8-0.9,0.8c-0.3,0-0.6-0.1-0.9-0.3l0.2-0.3c0.2,0.2,0.4,0.2,0.7,0.2
			c0.3,0,0.5-0.1,0.5-0.4c0-0.2-0.1-0.4-0.6-0.4h-0.6l0.1-1.3h1.4v0.4h-1l-0.1,0.5h0.2C267.7,330.9,268,331.2,268,331.6z"/>
		<path id="XMLID_248_" class="st57" d="M268.3,331.1c0-0.8,0.4-1.2,1-1.2c0.6,0,1,0.4,1,1.2s-0.4,1.2-1,1.2
			S268.3,331.9,268.3,331.1z M269.8,331.1c0-0.6-0.2-0.8-0.5-0.8c-0.3,0-0.5,0.3-0.5,0.8s0.2,0.8,0.5,0.8
			C269.6,331.9,269.8,331.7,269.8,331.1L269.8,331.1z"/>
		<path id="XMLID_247_" class="st57" d="M278.9,335.3c0,0.1-4.3,0.1-9.6,0.1c-5.3,0-9.6,0-9.6-0.1s4.3-0.1,9.6-0.1
			S278.9,335.2,278.9,335.3z"/>
		<path id="XMLID_246_" class="st57" d="M268.7,336.8c0,0.1-2,0.1-4.4,0.1c-2.4,0-4.4,0-4.4-0.1c0-0.1,2-0.1,4.4-0.1
			C266.7,336.7,268.7,336.8,268.7,336.8z"/>
		<path id="XMLID_241_" class="st57" d="M294.1,319.7v0.4h-0.3v-0.4c-0.3,0-0.6-0.1-0.8-0.3l0.2-0.3c0.2,0.1,0.4,0.2,0.7,0.3v-0.7
			c-0.4-0.1-0.8-0.2-0.8-0.7c0-0.3,0.2-0.6,0.8-0.7v-0.4h0.3v0.4c0.2,0,0.5,0.1,0.7,0.2l-0.1,0.3c-0.2-0.1-0.4-0.2-0.5-0.2v0.7
			c0.4,0.1,0.8,0.2,0.8,0.7C294.8,319.3,294.6,319.6,294.1,319.7z M293.8,318.2v-0.6c-0.2,0-0.3,0.2-0.3,0.3
			S293.6,318.2,293.8,318.2z M294.4,319c0-0.2-0.1-0.2-0.3-0.3v0.6C294.3,319.3,294.4,319.2,294.4,319L294.4,319z"/>
		<path id="XMLID_240_" class="st57" d="M296.8,317.3v2.3h-0.4v-2h-0.5v-0.4H296.8z"/>
		<path id="XMLID_239_" class="st57" d="M297.8,319.4c0,0.1,0,0.2-0.1,0.3l-0.2,0.5h-0.3l0.1-0.5c-0.1,0-0.2-0.1-0.2-0.2
			c0-0.1,0.1-0.3,0.3-0.3C297.7,319.1,297.8,319.2,297.8,319.4C297.8,319.4,297.8,319.4,297.8,319.4L297.8,319.4z"/>
		<path id="XMLID_236_" class="st57" d="M298.1,318.5c0-0.8,0.4-1.2,1-1.2c0.6,0,1,0.4,1,1.2s-0.4,1.2-1,1.2
			C298.5,319.7,298.1,319.2,298.1,318.5z M299.6,318.5c0-0.6-0.2-0.8-0.5-0.8c-0.3,0-0.5,0.3-0.5,0.8s0.2,0.8,0.5,0.8
			C299.4,319.3,299.6,319,299.6,318.5z"/>
		<path id="XMLID_233_" class="st57" d="M300.3,318.5c0-0.8,0.4-1.2,1-1.2c0.6,0,1,0.4,1,1.2s-0.4,1.2-1,1.2
			C300.7,319.7,300.3,319.2,300.3,318.5z M301.8,318.5c0-0.6-0.2-0.8-0.5-0.8c-0.3,0-0.5,0.3-0.5,0.8s0.2,0.8,0.5,0.8
			C301.6,319.3,301.8,319,301.8,318.5z"/>
		<path id="XMLID_232_" class="st57" d="M311.7,322.6c0,0.1-4.3,0.1-9.6,0.1c-5.3,0-9.6,0-9.6-0.1s4.3-0.1,9.6-0.1
			S311.7,322.6,311.7,322.6z"/>
		<path id="XMLID_231_" class="st57" d="M301.5,324.2c0,0.1-2,0.1-4.4,0.1c-2.4,0-4.4,0-4.4-0.1s2-0.1,4.4-0.1
			C299.5,324.1,301.5,324.1,301.5,324.2z"/>
		<path id="XMLID_230_" class="st59" d="M297.3,233.4c0,0.1-4.6,0.1-10.3,0.1c-5.7,0-10.3,0-10.3-0.1s4.6-0.1,10.3-0.1
			C292.7,233.3,297.3,233.3,297.3,233.4z"/>
	</g>
</g>
<g id="Right_Plants">
	<g id="XMLID_54_">
		<g id="XMLID_55_">
			<path id="XMLID_56_" class="st64" d="M804.9,284.6L804.9,284.6c6,0,10.9,4.9,10.9,10.9v44.6v2.2c0.7,17.5,18.9,18.3,18.9,49.7
				c0,37.9,0,26.8,0,64.7c0,7.7-6.3,14.1-14.1,14.1h-31.5c-7.7,0-14.1-6.3-14.1-14.1c0-55.7,0-62.4,0-118c0-16.5,3.8-17.6,11.5-22.1
				c6.8-3.9,7.4-10.9,7.4-12.5v-0.3v-8.2C794,289.5,798.9,284.6,804.9,284.6z"/>
			<path id="XMLID_57_" class="st65" d="M803.5,317.5c0-0.7,0.6-1.3,1.3-1.3c0.7,0,1.3,0.6,1.3,1.3v30.3l6.2-3.6
				c0.4-0.2,0.9-0.1,1.1,0.3c0.2,0.4,0.1,0.9-0.3,1.1l-7,4.1v43.3l18.5-10.7c0.4-0.2,0.9-0.1,1.1,0.3c0.2,0.4,0.1,0.9-0.3,1.1
				l-19.2,11.1v41.5l18.5-10.7c0.4-0.2,0.9-0.1,1.1,0.3c0.2,0.4,0.1,0.9-0.3,1.1L806.2,438v59.5c0,0.7-0.6,1.3-1.3,1.3
				c-0.7,0-1.3-0.6-1.3-1.3V449l-15.8-9.1c-0.4-0.2-0.5-0.7-0.3-1.1c0.2-0.4,0.7-0.5,1.1-0.3l15,8.7v-34.7l-15.8-9.1
				c-0.4-0.2-0.5-0.7-0.3-1.1c0.2-0.4,0.7-0.5,1.1-0.3l15,8.7V376l-15.8-9.1c-0.4-0.2-0.5-0.7-0.3-1.1c0.2-0.4,0.7-0.5,1.1-0.3
				l15,8.7v-34.7l-15.8-9.1c-0.4-0.2-0.5-0.7-0.3-1.1c0.2-0.4,0.7-0.5,1.1-0.3l15,8.7V317.5z"/>
		</g>
		<g id="XMLID_43_">
			<path id="XMLID_45_" class="st66" d="M834.5,363.7c0,14.9,0,8.9,0,14.7c0,5.8-4.3,9.7-6.7,12.2c-2.4,2.5-3.9,6.1-3.9,17.4
				c0,11.2,0.3,31,0.3,40.5c0,25.6,48.8,25.6,48.8,0c0-9.5,0.3-29.2,0.3-40.5c0-11.2-1.5-14.8-3.9-17.4c-2.4-2.5-6.7-6.4-6.7-12.2
				c0-5.8,0,0.2,0-14.7C862.8,344,834.5,344,834.5,363.7z"/>
			<path id="XMLID_44_" class="st67" d="M847.6,364.9c0-0.5,0.4-0.9,0.9-0.9c0.5,0,0.9,0.4,0.9,0.9v20.9l4.3-2.5
				c0.3-0.2,0.6-0.1,0.7,0.2s0.1,0.6-0.2,0.7l-4.9,2.8v30l12.8-7.4c0.3-0.1,0.6-0.1,0.7,0.2c0.2,0.3,0.1,0.6-0.2,0.7l-13.3,7.7V447
				l12.8-7.4c0.3-0.2,0.6-0.1,0.7,0.2c0.2,0.3,0.1,0.6-0.2,0.7l-13.3,7.7v33c0,0.5-0.4,0.9-0.9,0.9c-0.5,0-0.9-0.4-0.9-0.9v-25.4
				l-10.9-6.3c-0.3-0.1-0.4-0.5-0.2-0.7c0.1-0.3,0.5-0.4,0.7-0.2l10.4,6v-24l-10.9-6.3c-0.3-0.2-0.4-0.5-0.2-0.7
				c0.1-0.3,0.5-0.4,0.7-0.2l10.4,6v-24l-10.9-6.3c-0.3-0.2-0.4-0.5-0.2-0.7c0.1-0.3,0.5-0.4,0.7-0.2l10.4,6v-24l-7.1-4.1
				c-0.3-0.2-0.4-0.5-0.2-0.7c0.1-0.3,0.5-0.4,0.7-0.2l6.6,3.8V364.9z"/>
		</g>
		<path id="XMLID_42_" class="st66" d="M877.2,426.7H863c-1.1,0-2,0.9-2,2l0,0c0,1.1,0.9,2,2,2h14.2c1.1,0,2-0.9,2-2l0,0
			C879.2,427.6,878.3,426.7,877.2,426.7z"/>
		<path id="XMLID_41_" class="st66" d="M887.7,426.7h-1.9c-1.1,0-2,0.9-2,2l0,0c0,1.1,0.9,2,2,2h1.9c1.1,0,2-0.9,2-2l0,0
			C889.7,427.6,888.8,426.7,887.7,426.7z"/>
		<path id="XMLID_40_" class="st66" d="M858,359.9h9.8c1.1,0,2,0.9,2,2l0,0c0,1.1-0.9,2-2,2H858c-1.1,0-2-0.9-2-2l0,0
			C856,360.8,856.9,359.9,858,359.9z"/>
		<path id="XMLID_39_" class="st66" d="M871.2,401.8H882c1.1,0,2,0.9,2,2v0c0,1.1-0.9,2-2,2h-10.8c-1.1,0-2-0.9-2-2v0
			C869.2,402.7,870.1,401.8,871.2,401.8z"/>
		<path id="XMLID_38_" class="st66" d="M869.6,376.9L869.6,376.9c1,0,1.8,0.8,1.8,1.8v0.4c0,1-0.8,1.8-1.8,1.8l0,0
			c-1,0-1.8-0.8-1.8-1.8v-0.4C867.8,377.7,868.6,376.9,869.6,376.9z"/>
		<path id="XMLID_36_" class="st64" d="M815.5,323.8h15.3c1.1,0,2,0.9,2,2v0c0,1.1-0.9,2-2,2h-15.3c-1.1,0-2-0.9-2-2v0
			C813.5,324.7,814.4,323.8,815.5,323.8z"/>
		<path id="XMLID_33_" class="st64" d="M820.5,311.1h2.4c1.1,0,2,0.9,2,2l0,0c0,1.1-0.9,2-2,2h-2.4c-1.1,0-2-0.9-2-2l0,0
			C818.5,312,819.4,311.1,820.5,311.1z"/>
		<g id="XMLID_2_">
			<path id="XMLID_30_" class="st68" d="M839.2,430.5c-11.2,0-20.3,9.1-20.3,20.3c0,0.5,0,0.9,0,1.4c-7.1,1.1-12.8,6.3-14.6,13.1
				c-1.9,0.2-3.7,0.9-5.2,2c-2.3-2.5-5.6-4.1-9.3-4.1c-7,0-12.7,5.7-12.7,12.7c0,1.9,0.4,3.7,1.1,5.3H888c0.5-1.7,0.8-3.4,0.8-5.2
				c0-9.9-8.1-18-18-18c-0.7,0-1.5,0-2.2,0.1c-1.5-3.7-5-6.4-9.1-6.9c0-0.1,0-0.3,0-0.4C859.5,439.6,850.4,430.5,839.2,430.5z"/>
			<g id="XMLID_3_">
				<path id="XMLID_29_" class="st69" d="M874,469.2c-1.3,0-2.6,0.3-3.8,0.8c-1.1-2.2-3.3-3.8-6-3.8c-0.4,0-0.8,0-1.2,0.1
					c-0.8-5-5.2-8.9-10.5-8.9c-1.2,0-2.4,0.2-3.5,0.6c-2.7-4.2-7.5-7-12.9-7c-8.5,0-15.3,6.9-15.3,15.3c0,1.2,0.1,2.3,0.4,3.4
					c-0.3-0.1-0.7-0.1-1-0.1c-2,0-3.8,0.9-5,2.3c-1.4-0.9-3-1.5-4.8-1.5c-3.3,0-6.2,1.9-7.6,4.7c-0.3,0-0.6-0.1-0.8-0.1
					c-3.2,0-5.8,2.6-5.8,5.8c0,0.1,0,0.2,0,0.3h86.9c0.2-0.8,0.3-1.7,0.3-2.5C883.6,473.4,879.3,469.2,874,469.2z"/>
				<g id="XMLID_4_">
					<path id="XMLID_27_" class="st69" d="M787,475c1.6,0,2.9-1.3,2.9-2.9c0-1.6-1.3-2.9-2.9-2.9c-1.6,0-2.9,1.3-2.9,2.9
						C784.1,473.7,785.4,475,787,475z"/>
					<path id="XMLID_19_" class="st69" d="M810.9,468.2c1.1,0,2-0.9,2-2c0-1.1-0.9-2-2-2c-1.1,0-2,0.9-2,2
						C808.9,467.3,809.8,468.2,810.9,468.2z"/>
					<path id="XMLID_16_" class="st69" d="M838.3,440.2c1.6,0,2.9-1.3,2.9-2.9c0-1.6-1.3-2.9-2.9-2.9c-1.6,0-2.9,1.3-2.9,2.9
						C835.4,438.9,836.7,440.2,838.3,440.2z"/>
					<path id="XMLID_15_" class="st69" d="M849.9,446.6c1.6,0,2.9-1.3,2.9-2.9c0-1.6-1.3-2.9-2.9-2.9c-1.6,0-2.9,1.3-2.9,2.9
						C847,445.3,848.3,446.6,849.9,446.6z"/>
					<path id="XMLID_14_" class="st69" d="M880.6,468.7c1.3,0,2.4-1.1,2.4-2.4c0-1.3-1.1-2.4-2.4-2.4c-1.3,0-2.4,1.1-2.4,2.4
						C878.1,467.6,879.2,468.7,880.6,468.7z"/>
					<path id="XMLID_13_" class="st69" d="M835,447.6c1,0,1.8-0.8,1.8-1.8c0-1-0.8-1.8-1.8-1.8c-1,0-1.8,0.8-1.8,1.8
						C833.2,446.8,834,447.6,835,447.6z"/>
					<circle id="XMLID_12_" class="st69" cx="841.3" cy="444.7" r="0.9"/>
					<circle id="XMLID_11_" class="st69" cx="853.1" cy="449.2" r="0.9"/>
					<circle id="XMLID_10_" class="st69" cx="873.5" cy="464.4" r="0.9"/>
					<circle id="XMLID_9_" class="st69" cx="825.7" cy="445.8" r="0.9"/>
					<circle id="XMLID_8_" class="st69" cx="817.2" cy="460.2" r="0.9"/>
					<circle id="XMLID_7_" class="st69" cx="820.5" cy="455.3" r="1.4"/>
					<path id="XMLID_6_" class="st69" d="M855.9,455.5c0.8,0,1.4-0.6,1.4-1.4c0-0.8-0.6-1.4-1.4-1.4c-0.8,0-1.4,0.6-1.4,1.4
						C854.5,454.9,855.1,455.5,855.9,455.5z"/>
					<path id="XMLID_5_" class="st69" d="M865.9,463.4c0.8,0,1.4-0.6,1.4-1.4c0-0.8-0.6-1.4-1.4-1.4c-0.8,0-1.4,0.6-1.4,1.4
						C864.5,462.8,865.2,463.4,865.9,463.4z"/>
				</g>
			</g>
		</g>
		<path id="XMLID_46_" class="st64" d="M815.8,349.3h7.7c1.1,0,2,0.9,2,2l0,0c0,1.1-0.9,2-2,2h-7.7c-1.1,0-2-0.9-2-2l0,0
			C813.8,350.2,814.7,349.3,815.8,349.3z"/>
	</g>
</g>
</svg>
